<svg version="1.1" xmlns="http://www.w3.org/2000/svg" viewBox="0 0 1727.4999923706057 916.3251484636208" width="3454.9999847412114" height="1832.6502969272417">
  <!-- svg-source:excalidraw -->
  
  <defs>
    <style class="style-fonts">
      @font-face {
        font-family: "Virgil";
        src: url("https://excalidraw.com/Virgil.woff2");
      }
      @font-face {
        font-family: "Cascadia";
        src: url("https://excalidraw.com/Cascadia.woff2");
      }
    </style>
    
  </defs>
  <rect x="0" y="0" width="1727.4999923706057" height="916.3251484636208" fill="#ffffff"></rect><g transform="translate(253.33332061767578 254.32514846362074) rotate(0 687.5000000000002 68.50000000000006)" stroke="none"><path d="M45.56 -106.15 C45.56 -106.15, 45.56 -106.15, 45.56 -106.15 M45.56 -106.15 C45.56 -106.15, 45.56 -106.15, 45.56 -106.15 M20.37 -71.07 C32.72 -84.84, 41 -94.79, 64.98 -122.39 M20.37 -71.07 C30.54 -84.5, 41.01 -96.14, 64.98 -122.39 M12.23 -55.62 C30.2 -77.63, 50.38 -101.59, 84.4 -138.63 M12.23 -55.62 C31.98 -78.92, 52.86 -102.73, 84.4 -138.63 M8.04 -44.69 C32.21 -73.58, 57.25 -100.15, 104.48 -155.63 M8.04 -44.69 C32.45 -71.36, 54.55 -98.71, 104.48 -155.63 M7.12 -37.54 C48.09 -83.35, 88.09 -132.39, 118.65 -165.84 M7.12 -37.54 C50.11 -88, 92.44 -135.99, 118.65 -165.84 M6.2 -30.38 C36.21 -64.59, 66.15 -98.88, 132.16 -175.29 M6.2 -30.38 C42.38 -71.97, 76.94 -111.47, 132.16 -175.29 M3.97 -21.72 C61.91 -85.09, 115.09 -149.14, 145.02 -183.99 M3.97 -21.72 C41.04 -62.93, 78.21 -105.78, 145.02 -183.99 M-1.54 -9.29 C41.07 -56.91, 84.44 -108.29, 156.57 -191.17 M-1.54 -9.29 C33.77 -50.98, 70.27 -94.03, 156.57 -191.17 M-3.77 -0.63 C40.54 -51.38, 84.83 -103.39, 166.81 -196.85 M-3.77 -0.63 C52.82 -64.58, 108.86 -128.04, 166.81 -196.85 M-0.75 2 C54.83 -62.09, 109.26 -125.21, 175.07 -200.26 M-0.75 2 C50.5 -57.49, 101.45 -116.46, 175.07 -200.26 M0.3 6.89 C66.72 -70.05, 137 -149.08, 182.69 -202.92 M0.3 6.89 C64.85 -68.85, 131.52 -146.19, 182.69 -202.92 M1.35 11.78 C69.19 -65.08, 138.41 -144.57, 189.64 -204.83 M1.35 11.78 C47.68 -42.15, 94.84 -95.49, 189.64 -204.83 M1.75 17.42 C58.87 -47.52, 117.28 -112.92, 196.6 -206.73 M1.75 17.42 C41.67 -27.59, 81.04 -72.95, 196.6 -206.73 M2.8 22.31 C71.26 -59.75, 142.21 -138.55, 204.21 -209.39 M2.8 22.31 C83.36 -68.76, 163.21 -160.86, 204.21 -209.39 M3.85 27.2 C60.15 -37.56, 115.78 -102.05, 211.82 -212.05 M3.85 27.2 C47.09 -22.67, 91.17 -73.79, 211.82 -212.05 M5.55 31.33 C50.05 -18.45, 94.03 -67.48, 218.12 -213.2 M5.55 31.33 C51.34 -22.31, 97.43 -74.69, 218.12 -213.2 M7.92 34.71 C75.52 -43.18, 141.55 -121.48, 225.07 -215.1 M7.92 34.71 C56.6 -20.31, 106.57 -77.73, 225.07 -215.1 M9.62 38.84 C56.66 -12.8, 99.92 -63.4, 231.37 -216.25 M9.62 38.84 C77.11 -39.49, 144.61 -116.4, 231.37 -216.25 M11.33 42.98 C86.21 -41.42, 158.67 -128.14, 238.33 -218.15 M11.33 42.98 C62.47 -14.99, 113.57 -74.14, 238.33 -218.15 M12.38 47.86 C68.96 -14.46, 121.12 -75.75, 244.63 -219.3 M12.38 47.86 C72.32 -22.26, 131.51 -91.41, 244.63 -219.3 M14.09 52 C102.48 -48.69, 187.05 -147.86, 251.58 -221.21 M14.09 52 C70.76 -15.1, 128.65 -81.5, 251.58 -221.21 M256.17 -226.49 C256.29 -226.77, 256.52 -227.04, 256.83 -227.25 M256.17 -226.49 C256.38 -226.81, 256.63 -227.04, 256.83 -227.25 M15.8 56.13 C105.55 -46.62, 196.39 -151.21, 258.54 -223.11 M15.8 56.13 C79.19 -18.68, 142.71 -91.55, 258.54 -223.11 M261.82 -226.89 C261.82 -226.89, 261.82 -226.89, 261.82 -226.89 M261.82 -226.89 C261.82 -226.89, 261.82 -226.89, 261.82 -226.89 M17.5 60.26 C82.14 -13.45, 146.75 -86.63, 264.18 -223.51 M17.5 60.26 C97.12 -29.69, 176.98 -120.24, 264.18 -223.51 M266.8 -226.53 C266.8 -226.53, 266.8 -226.53, 266.8 -226.53 M266.8 -226.53 C266.8 -226.53, 266.8 -226.53, 266.8 -226.53 M19.21 64.4 C69.99 6.03, 120.38 -55.19, 270.48 -224.66 M19.21 64.4 C69.54 7.06, 120.45 -52.01, 270.48 -224.66 M271.79 -226.17 C271.99 -226.44, 272.19 -226.61, 272.45 -226.92 M271.79 -226.17 C271.93 -226.39, 272.1 -226.58, 272.45 -226.92 M20.92 68.53 C117.96 -41.52, 214.88 -150.94, 276.12 -225.05 M20.92 68.53 C108.17 -33.04, 197.08 -135.35, 276.12 -225.05 M277.43 -226.56 C277.43 -226.56, 277.43 -226.56, 277.43 -226.56 M277.43 -226.56 C277.43 -226.56, 277.43 -226.56, 277.43 -226.56 M22.62 72.67 C125.66 -47.59, 230.41 -166.46, 282.42 -226.2 M22.62 72.67 C114.53 -31.93, 205.27 -135.94, 282.42 -226.2 M282.42 -226.2 C282.66 -226.4, 282.69 -226.66, 283.08 -226.95 M282.42 -226.2 C282.73 -226.47, 283 -226.78, 283.08 -226.95 M24.33 76.8 C100.6 -7.15, 175.41 -92.83, 288.06 -226.59 M24.33 76.8 C90.66 2.94, 155.6 -72.16, 288.06 -226.59 M25.38 81.69 C83.88 14.2, 143.81 -54.73, 293.71 -226.99 M25.38 81.69 C124.84 -34.21, 225.43 -149.34, 293.71 -226.99 M27.74 85.07 C111.11 -10.66, 191.38 -104.89, 298.69 -226.63 M27.74 85.07 C89.4 12.64, 152.54 -60, 298.69 -226.63 M30.1 88.45 C130.13 -29.12, 232.5 -146.41, 304.34 -227.02 M30.1 88.45 C90.06 18.83, 150.66 -50.9, 304.34 -227.02 M31.81 92.58 C117.7 -4.66, 204.1 -104.33, 309.32 -226.66 M31.81 92.58 C130.94 -20.56, 229.72 -133.67, 309.32 -226.66 M34.17 95.96 C122.26 -3.46, 210.95 -104.83, 314.97 -227.06 M34.17 95.96 C103.7 13.54, 174.58 -68.37, 314.97 -227.06 M36.54 99.34 C103.22 22.51, 170.77 -53.07, 319.95 -226.7 M36.54 99.34 C97.19 29.89, 156.67 -38.43, 319.95 -226.7 M38.9 102.72 C122.37 10.2, 201.52 -82.43, 325.6 -227.09 M38.9 102.72 C147.3 -22.72, 255.57 -147.75, 325.6 -227.09 M40.61 106.85 C151.09 -18.11, 259.85 -142.22, 330.58 -226.73 M40.61 106.85 C112.37 24.99, 182.67 -55.99, 330.58 -226.73 M42.97 110.23 C109.64 35.48, 174.42 -40.51, 336.23 -227.13 M42.97 110.23 C102.18 40.19, 163.12 -29.26, 336.23 -227.13 M45.33 113.61 C132.59 12.79, 222.73 -89.98, 341.21 -226.77 M45.33 113.61 C120.06 27.16, 196.13 -60.29, 341.21 -226.77 M47.7 116.99 C142.03 12.31, 234.79 -94.17, 346.86 -227.16 M47.7 116.99 C154.57 -5.14, 260.3 -127.69, 346.86 -227.16 M50.71 119.61 C159.81 -6.16, 266.75 -130.17, 351.84 -226.8 M50.71 119.61 C143.17 14.41, 234.32 -89.92, 351.84 -226.8 M53.08 122.99 C125.7 42.18, 196.77 -40.25, 357.49 -227.2 M53.08 122.99 C154.44 7.52, 256.94 -109.48, 357.49 -227.2 M56.1 125.61 C168.64 -3, 282.39 -131.98, 362.48 -226.84 M56.1 125.61 C174.8 -8.79, 292.39 -143.58, 362.48 -226.84 M58.46 128.99 C156.04 17.43, 253.74 -95.22, 368.12 -227.23 M58.46 128.99 C139.61 35.55, 221.24 -58.23, 368.12 -227.23 M60.82 132.37 C160.66 17.07, 260.6 -98.88, 373.11 -226.87 M60.82 132.37 C171.87 5.41, 281.61 -120.95, 373.11 -226.87 M63.18 135.75 C187.57 -9.66, 312.59 -152.28, 378.75 -227.26 M63.18 135.75 C175.15 5.22, 288.11 -125.72, 378.75 -227.26 M66.2 138.37 C157.85 33.77, 249.38 -69.49, 383.74 -226.9 M66.2 138.37 C133.23 59.01, 201.39 -19.59, 383.74 -226.9 M68.57 141.75 C176.94 14.4, 286.78 -111.73, 388.72 -226.54 M68.57 141.75 C145.59 52.38, 222.22 -36.46, 388.72 -226.54 M70.93 145.13 C167.41 34.35, 264.57 -77.73, 394.37 -226.94 M70.93 145.13 C146.73 59.3, 221.71 -26.65, 394.37 -226.94 M73.29 148.51 C184.39 20.77, 297.09 -108.67, 399.35 -226.58 M73.29 148.51 C147.28 61.74, 222.15 -24.19, 399.35 -226.58 M76.31 151.14 C166.94 45.66, 259.05 -61.06, 405 -226.97 M76.31 151.14 C144.81 72.26, 213.29 -6.13, 405 -226.97 M78.67 154.51 C147.48 73.94, 217.3 -5.64, 409.98 -226.61 M78.67 154.51 C160.59 60.59, 242.7 -33.13, 409.98 -226.61 M81.04 157.89 C184.88 39.52, 287.96 -78.91, 415.63 -227.01 M81.04 157.89 C151.47 77.77, 221.56 -3.29, 415.63 -227.01 M83.4 161.27 C176.68 53.11, 270.23 -55.84, 420.61 -226.65 M83.4 161.27 C190.57 38.3, 298.58 -85.62, 420.61 -226.65 M86.42 163.9 C204.67 28.36, 322.41 -106.22, 426.26 -227.04 M86.42 163.9 C170.1 68.84, 253.41 -26.84, 426.26 -227.04 M88.78 167.28 C192.9 45.47, 297.92 -76.59, 431.24 -226.68 M88.78 167.28 C180.72 60.87, 272.62 -46.04, 431.24 -226.68 M91.14 170.65 C203.5 41.26, 315.97 -87.03, 436.89 -227.08 M91.14 170.65 C221.33 19.41, 351.89 -131.04, 436.89 -227.08 M94.16 173.28 C225 19.77, 357.75 -131.95, 441.87 -226.72 M94.16 173.28 C172.15 82.48, 251.11 -7.75, 441.87 -226.72 M97.18 175.9 C187.23 73.66, 278.61 -30.23, 447.52 -227.11 M97.18 175.9 C175.49 84.8, 254.64 -6.11, 447.52 -227.11 M100.2 178.53 C171.83 94.89, 245.18 12.54, 452.5 -226.75 M100.2 178.53 C211.65 49.71, 323.52 -79.18, 452.5 -226.75 M103.22 181.15 C217.74 51.77, 330.79 -77.88, 458.15 -227.15 M103.22 181.15 C194.69 76.66, 284.93 -27.51, 458.15 -227.15 M106.24 183.78 C178.44 98.41, 253.15 13.92, 463.13 -226.79 M106.24 183.78 C241.24 29.75, 374.86 -124.91, 463.13 -226.79 M109.26 186.4 C239.16 36.58, 369.89 -114.67, 468.78 -227.18 M109.26 186.4 C211.91 68.08, 314.66 -49.95, 468.78 -227.18 M112.27 189.02 C197.88 89.35, 284.64 -9.62, 473.76 -226.82 M112.27 189.02 C194.17 92.45, 277.24 -3.08, 473.76 -226.82 M115.95 190.89 C194.79 98.17, 274.71 6.57, 479.41 -227.22 M115.95 190.89 C254.08 31.3, 393.06 -128.86, 479.41 -227.22 M118.97 193.52 C220.51 74.01, 325.05 -44.03, 484.39 -226.85 M118.97 193.52 C196.55 104.01, 275.44 13.59, 484.39 -226.85 M121.99 196.14 C265.32 32.25, 408.14 -131.35, 490.04 -227.25 M121.99 196.14 C259.44 39.19, 397.74 -119.43, 490.04 -227.25 M125.66 198.01 C247.12 57.07, 370.36 -84.77, 495.02 -226.89 M125.66 198.01 C223.59 85.52, 322.15 -27.91, 495.02 -226.89 M128.68 200.64 C254.1 54.59, 380.99 -91.29, 500.67 -227.28 M128.68 200.64 C252.25 58.62, 374.99 -82.98, 500.67 -227.28 M131.7 203.26 C250.98 67.81, 369.74 -67.85, 505.65 -226.92 M131.7 203.26 C211.92 108.82, 293.86 15.09, 505.65 -226.92 M135.37 205.13 C220.16 106.6, 306.18 7.79, 511.3 -227.32 M135.37 205.13 C237.87 85.87, 340.96 -32.96, 511.3 -227.32 M138.39 207.75 C281.15 45.76, 422.22 -118.41, 516.28 -226.96 M138.39 207.75 C257.28 71.61, 374.85 -63.91, 516.28 -226.96 M141.41 210.38 C281.39 50.1, 419.91 -110.53, 521.27 -226.6 M141.41 210.38 C249.61 84.01, 358.11 -41.33, 521.27 -226.6 M145.09 212.25 C293.4 43.5, 440.15 -125.22, 526.91 -226.99 M145.09 212.25 C254.85 86.3, 363.09 -38.94, 526.91 -226.99 M148.11 214.87 C286.39 59.3, 422.95 -98.14, 531.9 -226.63 M148.11 214.87 C296.97 42.13, 447.84 -131.01, 531.9 -226.63 M151.12 217.5 C241.7 114.85, 332.63 10.15, 537.54 -227.03 M151.12 217.5 C258.19 92.93, 365.88 -31.68, 537.54 -227.03 M154.8 219.37 C295.16 57.43, 434.99 -102.69, 542.53 -226.67 M154.8 219.37 C261.94 97.98, 367.25 -23.16, 542.53 -226.67 M158.47 221.24 C290.07 66.77, 423.27 -85.92, 548.17 -227.06 M158.47 221.24 C291.45 69.38, 422.1 -81.39, 548.17 -227.06 M162.15 223.11 C249.25 122.57, 336.25 21.24, 553.16 -226.7 M162.15 223.11 C302.27 64.68, 441.65 -95.52, 553.16 -226.7 M165.82 224.97 C303.32 65.59, 440.87 -92, 558.8 -227.1 M165.82 224.97 C286.62 88.08, 405.31 -48.91, 558.8 -227.1 M169.5 226.84 C309.77 65.27, 450.61 -96.63, 563.79 -226.74 M169.5 226.84 C299.23 79.46, 428.05 -68.11, 563.79 -226.74 M173.17 228.71 C260.06 129.03, 347.34 28.52, 569.43 -227.13 M173.17 228.71 C300.39 82.06, 428.63 -64.55, 569.43 -227.13 M176.85 230.58 C277.17 115.73, 376.09 1.59, 574.42 -226.77 M176.85 230.58 C263.28 131.96, 350.65 31.56, 574.42 -226.77 M181.18 231.7 C315.67 73.7, 451.09 -82.29, 580.06 -227.17 M181.18 231.7 C318.91 72.46, 456.49 -85.49, 580.06 -227.17 M184.85 233.57 C332.14 65.89, 477.03 -101.72, 585.05 -226.81 M184.85 233.57 C312.46 86.6, 440.08 -60.09, 585.05 -226.81 M188.53 235.44 C278.67 134.48, 367.58 31, 590.69 -227.2 M188.53 235.44 C276.39 135.33, 364.35 34.58, 590.69 -227.2 M192.2 237.31 C287.54 127.41, 381.92 18.83, 595.68 -226.84 M192.2 237.31 C298.31 116.25, 404.64 -6.06, 595.68 -226.84 M195.88 239.18 C358.88 51.86, 519.72 -133.31, 601.32 -227.23 M195.88 239.18 C355.34 55.33, 514.28 -127.21, 601.32 -227.23 M199.55 241.05 C349.27 68.37, 499.73 -105.77, 606.31 -226.87 M199.55 241.05 C340.1 79.44, 478.87 -79.64, 606.31 -226.87 M203.23 242.92 C336.87 89.76, 471.15 -64.79, 611.95 -227.27 M203.23 242.92 C294.52 140.94, 385.14 36.92, 611.95 -227.27 M206.9 244.78 C351.82 79.78, 496.11 -85.59, 616.94 -226.91 M206.9 244.78 C366.57 58.77, 527.81 -126.46, 616.94 -226.91 M211.24 245.9 C329.69 106.63, 448.72 -30.27, 622.58 -227.3 M211.24 245.9 C316.61 125.36, 421.52 3.78, 622.58 -227.3 M214.91 247.77 C353.7 87.52, 493.26 -71.11, 627.57 -226.94 M214.91 247.77 C342.48 99.47, 470.98 -47.6, 627.57 -226.94 M218.58 249.64 C338.77 110.59, 459.08 -28.95, 633.21 -227.34 M218.58 249.64 C364.28 82.71, 510.61 -85.92, 633.21 -227.34 M222.26 251.51 C369.01 83.29, 513.74 -84.24, 638.2 -226.98 M222.26 251.51 C363.36 88.88, 504.47 -73.76, 638.2 -226.98 M225.93 253.38 C373.66 82.01, 524.23 -90, 643.84 -227.37 M225.93 253.38 C380.49 74.67, 535.37 -103.11, 643.84 -227.37 M229.61 255.25 C397.23 63.44, 563.2 -128.68, 648.83 -227.01 M229.61 255.25 C386.54 77.33, 541.91 -101.17, 648.83 -227.01 M233.94 256.36 C336.96 140.29, 437.83 22.55, 653.82 -226.65 M233.94 256.36 C343.39 127.72, 454.82 -0.93, 653.82 -226.65 M237.62 258.23 C385.36 86.73, 533.02 -83.84, 659.46 -227.05 M237.62 258.23 C346.71 135.19, 453.52 11.62, 659.46 -227.05 M241.29 260.1 C377.57 105.52, 511.23 -49.53, 664.45 -226.69 M241.29 260.1 C410.53 67.97, 578.37 -125.55, 664.45 -226.69 M245.62 261.22 C358.27 131.62, 471.22 4.05, 670.09 -227.08 M245.62 261.22 C368.36 119.18, 490.07 -20.61, 670.09 -227.08 M249.3 263.09 C371.65 125.03, 494.18 -15.02, 675.08 -226.72 M249.3 263.09 C347.16 149.59, 444.87 37.11, 675.08 -226.72 M253.63 264.2 C363.17 137.1, 471.38 13.26, 680.72 -227.12 M253.63 264.2 C390.98 106.59, 527.34 -51.33, 680.72 -227.12 M257.3 266.07 C369.42 137.57, 482.57 6.55, 685.71 -226.76 M257.3 266.07 C353.74 154.31, 449.53 43.78, 685.71 -226.76 M260.98 267.94 C356.37 158.5, 451.12 49.16, 691.35 -227.15 M260.98 267.94 C369.29 141.36, 478.85 15.8, 691.35 -227.15 M265.31 269.05 C396.62 120.04, 526.7 -29.14, 696.34 -226.79 M265.31 269.05 C413.22 97.23, 562.46 -74.66, 696.34 -226.79 M270.3 269.41 C414.63 102.96, 557.97 -61.27, 701.98 -227.18 M270.3 269.41 C415.93 98.71, 563.13 -70.86, 701.98 -227.18 M274.63 270.53 C388.34 140.77, 501.41 11.76, 706.97 -226.82 M274.63 270.53 C431.5 89.66, 587.66 -90.55, 706.97 -226.82 M278.96 271.64 C424.23 105.44, 567.76 -59.37, 712.61 -227.22 M278.96 271.64 C402.93 129.34, 527.92 -14.05, 712.61 -227.22 M283.29 272.76 C430.81 102.26, 579.08 -67.09, 717.6 -226.86 M283.29 272.76 C430.26 105.45, 577.02 -63.09, 717.6 -226.86 M288.27 273.12 C391.56 155.3, 493.8 37.88, 723.24 -227.25 M288.27 273.12 C438.18 100.33, 589.07 -73.58, 723.24 -227.25 M292.61 274.23 C449.19 95, 602.06 -81.98, 728.23 -226.89 M292.61 274.23 C442.3 102.75, 593.06 -70.62, 728.23 -226.89 M296.94 275.35 C398.95 160.7, 498.41 46.12, 733.87 -227.29 M296.94 275.35 C397.68 159.3, 497.66 43.77, 733.87 -227.29 M301.27 276.46 C404.99 156.64, 508.64 36.64, 738.86 -226.93 M301.27 276.46 C455.15 98.6, 609.93 -79.22, 738.86 -226.93 M306.25 276.82 C473.2 85.46, 640.97 -107.69, 744.5 -227.32 M306.25 276.82 C478.65 78.77, 650.61 -119.19, 744.5 -227.32 M310.59 277.94 C466.42 97.26, 621.72 -82.87, 749.49 -226.96 M310.59 277.94 C460.02 107.67, 606.8 -61.9, 749.49 -226.96 M314.92 279.05 C458.74 111.77, 601.96 -53.62, 755.13 -227.36 M314.92 279.05 C469.21 101.69, 623.18 -75.3, 755.13 -227.36 M319.25 280.17 C491.9 81.74, 665.4 -119.26, 760.12 -227 M319.25 280.17 C481.07 93.97, 642.38 -91.66, 760.12 -227 M324.23 280.53 C489.57 93.04, 654.87 -98.21, 765.76 -227.39 M324.23 280.53 C484.56 96.55, 642.58 -85.23, 765.76 -227.39 M328.57 281.64 C441.73 149.47, 558.01 16.54, 770.75 -227.03 M328.57 281.64 C468.06 117.36, 609.66 -45.16, 770.75 -227.03 M332.9 282.76 C424.24 174.81, 516.05 70.31, 776.39 -227.43 M332.9 282.76 C482.87 108.99, 632.96 -62.84, 776.39 -227.43 M337.23 283.87 C509.32 82.53, 683.26 -115.85, 781.38 -227.07 M337.23 283.87 C501.88 91.11, 668.63 -99.97, 781.38 -227.07 M342.21 284.23 C515.05 88.08, 685.51 -108.24, 786.37 -226.71 M342.21 284.23 C496.92 105.58, 652.62 -72.89, 786.37 -226.71 M346.55 285.35 C453.64 165.48, 558.43 44.46, 792.01 -227.1 M346.55 285.35 C485.44 126.42, 623.36 -32.02, 792.01 -227.1 M350.88 286.46 C453.28 167.37, 557.74 46.73, 797 -226.74 M350.88 286.46 C490.86 127.65, 629.59 -32.45, 797 -226.74 M355.86 286.82 C526.02 89.87, 695.44 -105.65, 802.64 -227.14 M355.86 286.82 C448.68 183.06, 539.33 78.43, 802.64 -227.14 M360.19 287.94 C523.44 102.33, 684.56 -82.86, 807.63 -226.77 M360.19 287.94 C490.55 138.18, 622.73 -13.6, 807.63 -226.77 M364.53 289.05 C464.49 174.86, 565.13 58.49, 813.27 -227.17 M364.53 289.05 C515.37 114.45, 667.6 -60.63, 813.27 -227.17 M368.86 290.17 C522.94 112.59, 677.22 -64.62, 818.26 -226.81 M368.86 290.17 C466.87 179.56, 563.77 67.38, 818.26 -226.81 M373.84 290.53 C507.59 140.27, 639.79 -10.9, 823.9 -227.2 M373.84 290.53 C509.48 134.23, 644.14 -21.04, 823.9 -227.2 M378.17 291.64 C479.58 172.97, 582.02 54.39, 828.89 -226.84 M378.17 291.64 C535.71 110.64, 692.48 -70.42, 828.89 -226.84 M382.51 292.76 C534.16 117.75, 688.14 -58.57, 834.53 -227.24 M382.51 292.76 C506.47 151.09, 628.86 9.78, 834.53 -227.24 M387.49 293.12 C495.09 167.7, 604.65 42.38, 839.52 -226.88 M387.49 293.12 C483.41 180.81, 581.37 68.55, 839.52 -226.88 M391.82 294.23 C499.6 173.33, 607.01 50.31, 845.16 -227.27 M391.82 294.23 C544.03 117.04, 697.49 -59.97, 845.16 -227.27 M396.81 294.59 C526.28 149.85, 653.57 2.74, 850.15 -226.91 M396.81 294.59 C531.38 143.15, 663.66 -9.02, 850.15 -226.91 M401.14 295.71 C525.08 150.4, 649.49 5.26, 855.79 -227.31 M401.14 295.71 C580.21 91.07, 757.9 -113.55, 855.79 -227.31 M406.13 296.07 C503.74 181.14, 602.83 67.29, 860.78 -226.95 M406.13 296.07 C544.82 135.47, 682.82 -23.38, 860.78 -226.95 M410.46 297.18 C541.43 149.51, 670.01 1.82, 866.42 -227.34 M410.46 297.18 C508.65 182.19, 608.1 68.18, 866.42 -227.34 M415.45 297.54 C594.67 88.56, 774.64 -118.88, 871.41 -226.98 M415.45 297.54 C566.61 125.7, 716.66 -46.75, 871.41 -226.98 M419.78 298.66 C554.86 141.46, 692.77 -16.7, 877.05 -227.38 M419.78 298.66 C517.71 189.17, 614.21 77.94, 877.05 -227.38 M424.76 299.02 C576.54 123.56, 728.14 -51.44, 882.04 -227.02 M424.76 299.02 C561.29 140.96, 698.16 -15.57, 882.04 -227.02 M429.1 300.13 C563.97 146.05, 697.53 -7.88, 887.68 -227.41 M429.1 300.13 C548.14 162.34, 668.37 23.57, 887.68 -227.41 M434.08 300.49 C537.18 184.39, 637.14 68.71, 892.67 -227.05 M434.08 300.49 C567.27 145.45, 701.11 -8.15, 892.67 -227.05 M438.41 301.61 C555.02 167.98, 673.08 34.23, 898.31 -227.45 M438.41 301.61 C560.65 160.45, 683.09 19.35, 898.31 -227.45 M443.4 301.97 C546.97 184.36, 649.59 67.49, 903.3 -227.09 M443.4 301.97 C554.97 173.88, 666.1 46.37, 903.3 -227.09 M447.73 303.08 C584.69 145.82, 722.11 -12.18, 908.28 -226.73 M447.73 303.08 C547 188.23, 648.23 72.32, 908.28 -226.73 M452.06 304.2 C624.05 104.17, 798.7 -95.54, 913.93 -227.12 M452.06 304.2 C557.76 180.66, 664.92 57.37, 913.93 -227.12 M456.39 305.31 C618.85 117.14, 783.85 -72.33, 918.91 -226.76 M456.39 305.31 C603.48 137.26, 750.6 -31.8, 918.91 -226.76 M460.72 306.43 C596.64 149.46, 734.5 -8.08, 924.56 -227.15 M460.72 306.43 C647.14 91.9, 832.74 -121.31, 924.56 -227.15 M465.05 307.54 C602.22 151.1, 739.12 -6.74, 929.54 -226.79 M465.05 307.54 C588.34 169.56, 709.88 29.36, 929.54 -226.79 M470.04 307.9 C591.74 169.27, 714.41 28.71, 935.19 -227.19 M470.04 307.9 C577.17 184.34, 684.92 60.76, 935.19 -227.19 M474.37 309.02 C658.17 96.7, 841.92 -115.3, 940.17 -226.83 M474.37 309.02 C636.29 119.22, 800.8 -70.17, 940.17 -226.83 M478.7 310.13 C638.16 126.92, 797.15 -54.49, 945.82 -227.22 M478.7 310.13 C604.35 167.63, 728.58 25.05, 945.82 -227.22 M483.69 310.49 C609.12 167.46, 735.68 23.42, 950.8 -226.86 M483.69 310.49 C664.15 101.99, 846.48 -107.92, 950.8 -226.86 M488.02 311.6 C608.91 174.81, 727.07 38.97, 956.45 -227.26 M488.02 311.6 C672.81 98.9, 857.56 -113.37, 956.45 -227.26 M493.01 311.96 C652.19 128.26, 811.97 -55.27, 961.43 -226.9 M493.01 311.96 C668.99 105.41, 846.86 -99.39, 961.43 -226.9 M497.34 313.08 C644.69 142.39, 792.23 -27.22, 967.08 -227.29 M497.34 313.08 C667.49 118.59, 835.97 -75.01, 967.08 -227.29 M502.33 313.44 C677.54 113.01, 850.66 -86.84, 972.07 -226.93 M502.33 313.44 C611.52 190.06, 717.91 66.68, 972.07 -226.93 M506.66 314.55 C645.47 154.49, 786.56 -6.68, 977.71 -227.33 M506.66 314.55 C624.09 179.72, 742.96 43.97, 977.71 -227.33 M511.64 314.91 C668.23 133.5, 824.86 -48.08, 982.7 -226.97 M511.64 314.91 C623.93 185.04, 736.72 56.1, 982.7 -226.97 M515.98 316.03 C686.58 121.65, 854.19 -71.77, 988.34 -227.36 M515.98 316.03 C617.56 198.95, 721.2 80.73, 988.34 -227.36 M520.96 316.39 C678.99 135.78, 837.16 -46.43, 993.33 -227 M520.96 316.39 C627.4 196.57, 732.57 75.77, 993.33 -227 M525.29 317.5 C675.27 143.94, 824.9 -27.83, 998.97 -227.4 M525.29 317.5 C693.68 124.26, 862.18 -69.36, 998.97 -227.4 M530.28 317.86 C668.68 159.55, 807.58 0.27, 1003.96 -227.04 M530.28 317.86 C711.59 105.4, 894.97 -105.94, 1003.96 -227.04 M535.27 318.22 C713.54 113.78, 891 -91.77, 1009.6 -227.43 M535.27 318.22 C638.61 202.73, 740.28 85.62, 1009.6 -227.43 M539.6 319.34 C664.75 177.61, 788.95 34.31, 1014.59 -227.07 M539.6 319.34 C655.22 183.81, 772.93 48.65, 1014.59 -227.07 M544.59 319.7 C645.51 204.84, 744.05 90.63, 1020.23 -227.46 M544.59 319.7 C683.89 160.5, 821.84 1.38, 1020.23 -227.46 M548.92 320.81 C698.05 151.97, 843.74 -15.92, 1025.22 -227.1 M548.92 320.81 C699.09 147.42, 848.91 -24.69, 1025.22 -227.1 M553.9 321.17 C676.69 179.94, 799.95 38.29, 1030.86 -227.5 M553.9 321.17 C715.7 135.97, 876.13 -49, 1030.86 -227.5 M558.23 322.29 C668.94 197.91, 779.78 70.32, 1035.85 -227.14 M558.23 322.29 C653.9 212.02, 749.95 101.13, 1035.85 -227.14 M563.22 322.65 C680.94 188.88, 799.06 52.91, 1040.83 -226.78 M563.22 322.65 C684.51 183.02, 807.35 42.53, 1040.83 -226.78 M567.55 323.76 C684.97 186.39, 802.24 50.61, 1046.48 -227.17 M567.55 323.76 C723.55 141.77, 881.52 -39.51, 1046.48 -227.17 M572.54 324.12 C699.43 177.96, 826.73 31.38, 1051.46 -226.81 M572.54 324.12 C668.95 211.24, 767.13 98.27, 1051.46 -226.81 M576.87 325.24 C720.12 158.4, 863.44 -6.77, 1057.11 -227.21 M576.87 325.24 C678.69 207.36, 780.36 90.31, 1057.11 -227.21 M581.86 325.6 C718.26 169.48, 852.03 13.81, 1062.09 -226.85 M581.86 325.6 C719.38 167.19, 856.7 8.72, 1062.09 -226.85 M586.19 326.71 C757 131.3, 926.7 -64.31, 1067.08 -226.49 M586.19 326.71 C762.44 124.59, 939.4 -79.21, 1067.08 -226.49 M591.18 327.07 C701.08 197.44, 813.17 68.71, 1072.72 -226.88 M591.18 327.07 C717.05 184.09, 842.14 39.78, 1072.72 -226.88 M595.51 328.19 C736.23 165.7, 878.11 2.6, 1077.71 -226.52 M595.51 328.19 C700.69 204.4, 807.72 81.53, 1077.71 -226.52 M600.49 328.55 C761.1 143.35, 921.23 -40.62, 1083.35 -226.92 M600.49 328.55 C715.74 197.97, 829.17 67.74, 1083.35 -226.92 M604.82 329.66 C718.82 195.95, 835.37 61.84, 1088.34 -226.56 M604.82 329.66 C795.5 112.24, 985.16 -106.38, 1088.34 -226.56 M609.81 330.02 C790.47 125.13, 968.4 -80.96, 1093.98 -226.95 M609.81 330.02 C788.61 124.6, 967.82 -81.77, 1093.98 -226.95 M614.8 330.38 C722.81 207.36, 829.96 84.22, 1098.97 -226.59 M614.8 330.38 C716.48 213.78, 816.24 98.54, 1098.97 -226.59 M619.13 331.5 C717.05 219.18, 815.02 106.62, 1103.96 -226.23 M619.13 331.5 C803.91 117.59, 988.7 -94.09, 1103.96 -226.23 M624.12 331.86 C770.85 164.93, 917.49 -2.74, 1109.6 -226.63 M624.12 331.86 C811.51 115.95, 1000.48 -101.2, 1109.6 -226.63 M628.45 332.97 C755.94 184.57, 883.82 37.01, 1114.59 -226.27 M628.45 332.97 C741.46 205.05, 851.98 78.01, 1114.59 -226.27 M633.43 333.33 C758.91 187.06, 885.39 40.52, 1120.23 -226.66 M633.43 333.33 C811.05 128.42, 990.18 -77.58, 1120.23 -226.66 M637.77 334.45 C763.32 187.29, 890.35 41.32, 1125.22 -226.3 M637.77 334.45 C750.7 207.21, 862.01 78.5, 1125.22 -226.3 M642.75 334.81 C792.84 162.74, 942.65 -8.92, 1130.86 -226.69 M642.75 334.81 C825.03 129.16, 1005.07 -77.44, 1130.86 -226.69 M647.08 335.92 C780.64 181.81, 914.7 26.24, 1135.85 -226.33 M647.08 335.92 C819.43 138.57, 990.11 -58.45, 1135.85 -226.33 M652.07 336.28 C828.08 131.8, 1006.52 -72.75, 1140.83 -225.97 M652.07 336.28 C813.01 152.74, 971.2 -29.88, 1140.83 -225.97 M656.4 337.4 C782.69 192.43, 909.84 45.96, 1146.48 -226.37 M656.4 337.4 C807.1 163, 959.11 -11.61, 1146.48 -226.37 M661.39 337.76 C851.77 117.6, 1042.51 -102.5, 1148.18 -222.24 M661.39 337.76 C838.37 131.74, 1017.39 -73.33, 1148.18 -222.24 M1148.18 -222.24 C1149.65 -223.12, 1150.49 -225.13, 1151.46 -226.01 M1148.18 -222.24 C1149.26 -223.15, 1150.02 -224.32, 1151.46 -226.01 M665.72 338.87 C797.04 190.32, 925.71 40.29, 1153.17 -221.88 M665.72 338.87 C827.74 155.82, 987.96 -28.61, 1153.17 -221.88 M1153.83 -222.63 C1155.22 -224.03, 1156.13 -225.45, 1157.11 -226.4 M1153.83 -222.63 C1154.84 -223.99, 1156.55 -225.49, 1157.11 -226.4 M670.71 339.23 C806.61 179.74, 943.58 22.02, 1158.16 -221.52 M670.71 339.23 C788.62 200.01, 908.46 62.12, 1158.16 -221.52 M1159.47 -223.02 C1160.46 -224.03, 1161.11 -225.05, 1162.09 -226.04 M1159.47 -223.02 C1160.32 -224.3, 1161.54 -225.53, 1162.09 -226.04 M675.04 340.35 C805.64 189.07, 934.97 40.17, 1163.15 -221.16 M675.04 340.35 C798.31 197.88, 921.45 55.54, 1163.15 -221.16 M1165.11 -223.42 C1165.82 -224.66, 1167.07 -225.14, 1167.74 -226.44 M1165.11 -223.42 C1165.58 -223.93, 1166.37 -224.72, 1167.74 -226.44 M680.02 340.71 C806.31 195.96, 935.1 47.49, 1168.13 -220.8 M680.02 340.71 C819.47 179.45, 961.68 15.82, 1168.13 -220.8 M1170.76 -223.81 C1171.15 -224.09, 1171.46 -225.16, 1172.72 -226.08 M1170.76 -223.81 C1171.33 -224.36, 1171.61 -224.89, 1172.72 -226.08 M685.01 341.07 C803.31 202.95, 922.9 65.96, 1173.12 -220.44 M685.01 341.07 C881.09 119.16, 1073.98 -103.71, 1173.12 -220.44 M1176.4 -224.21 C1176.81 -224.81, 1177.47 -225.24, 1177.71 -225.72 M1176.4 -224.21 C1176.77 -224.5, 1176.91 -224.88, 1177.71 -225.72 M689.34 342.18 C791.17 227.26, 889.71 113.13, 1178.11 -220.08 M689.34 342.18 C794.67 222.07, 898.6 102.79, 1178.11 -220.08 M1182.04 -224.6 C1182.21 -224.83, 1182.62 -225.34, 1183.35 -226.11 M1182.04 -224.6 C1182.46 -225.08, 1182.9 -225.57, 1183.35 -226.11 M694.33 342.54 C819.02 196.85, 944.16 52.01, 1183.09 -219.71 M694.33 342.54 C831.62 184.16, 969.19 25.34, 1183.09 -219.71 M1187.69 -225 C1187.88 -225.18, 1188.07 -225.38, 1188.34 -225.75 M1187.69 -225 C1187.86 -225.13, 1188.03 -225.35, 1188.34 -225.75 M698.66 343.66 C869.03 148.78, 1036.9 -44.55, 1187.42 -218.6 M698.66 343.66 C870.35 148.25, 1040.4 -48.31, 1187.42 -218.6 M1193.33 -225.39 C1193.57 -225.6, 1193.71 -225.91, 1193.98 -226.15 M1193.33 -225.39 C1193.54 -225.68, 1193.85 -225.94, 1193.98 -226.15 M703.65 344.02 C866.05 157.15, 1029.69 -29.46, 1192.41 -218.24 M703.65 344.02 C828.56 197.11, 954.94 50.98, 1192.41 -218.24 M707.98 345.13 C880.01 146.86, 1052.71 -52.52, 1196.74 -217.13 M707.98 345.13 C854.13 175.48, 1002.13 6.02, 1196.74 -217.13 M712.31 346.25 C859.98 172.49, 1010.12 0.4, 1201.07 -216.01 M712.31 346.25 C840.49 200.24, 966.96 54.68, 1201.07 -216.01 M716.64 347.36 C837.97 207.19, 960.04 66.11, 1205.4 -214.9 M716.64 347.36 C894.51 143.18, 1071.17 -60.49, 1205.4 -214.9 M720.97 348.48 C858.34 192.42, 993.58 35.49, 1209.74 -213.78 M720.97 348.48 C866.16 178.52, 1013.09 10.03, 1209.74 -213.78 M725.96 348.84 C868.24 185.38, 1011.14 22.09, 1214.07 -212.67 M725.96 348.84 C873.61 178.45, 1023.22 7.1, 1214.07 -212.67 M730.95 349.2 C868.32 192.3, 1005.85 36.43, 1218.4 -211.55 M730.95 349.2 C893.93 165.09, 1054.86 -20.83, 1218.4 -211.55 M735.93 349.56 C872.6 190.54, 1011.4 31.7, 1222.73 -210.44 M735.93 349.56 C893.28 169.49, 1050.26 -10.98, 1222.73 -210.44 M740.92 349.92 C873.69 198.91, 1004.2 48.24, 1227.06 -209.32 M740.92 349.92 C840.21 236.55, 939.91 122.26, 1227.06 -209.32 M745.91 350.28 C893.03 180.66, 1041.3 9.87, 1231.39 -208.21 M745.91 350.28 C918.03 154.63, 1089.07 -41.85, 1231.39 -208.21 M750.89 350.64 C863.02 223.26, 974.3 95.75, 1235.72 -207.09 M750.89 350.64 C930.43 141.16, 1111.59 -67.52, 1235.72 -207.09 M755.88 351 C862.68 231.49, 968.25 110.19, 1240.05 -205.98 M755.88 351 C943.27 134.68, 1130.97 -80.8, 1240.05 -205.98 M760.87 351.36 C886.86 207.15, 1013.4 61.54, 1243.73 -204.11 M760.87 351.36 C951.36 130.51, 1142.56 -89.42, 1243.73 -204.11 M765.85 351.72 C933.41 161.06, 1099.05 -29.88, 1248.06 -202.99 M765.85 351.72 C944.15 146.61, 1122.82 -59.16, 1248.06 -202.99 M770.84 352.08 C913.19 186.08, 1056.78 22.16, 1251.73 -201.12 M770.84 352.08 C878.9 228.05, 987.53 103.4, 1251.73 -201.12 M775.17 353.19 C963.39 137.54, 1150.06 -78.81, 1256.06 -200.01 M775.17 353.19 C920.08 186.55, 1063.49 22.44, 1256.06 -200.01 M779.5 354.31 C965.04 141.2, 1151.22 -72.04, 1259.74 -198.14 M779.5 354.31 C935.35 175.38, 1090.22 -2.88, 1259.74 -198.14 M783.83 355.42 C942.14 174.58, 1101.1 -8.46, 1264.07 -197.02 M783.83 355.42 C934.13 182.94, 1085.36 8.54, 1264.07 -197.02 M788.17 356.54 C888.09 242.68, 985.82 130.69, 1267.74 -195.15 M788.17 356.54 C953.4 165.52, 1119.73 -25.32, 1267.74 -195.15 M792.5 357.65 C940.91 185.5, 1091.34 12.56, 1272.08 -194.04 M792.5 357.65 C900.66 237.59, 1007.09 115.33, 1272.08 -194.04 M796.83 358.77 C964.64 167.47, 1130.95 -24.02, 1275.75 -192.17 M796.83 358.77 C918.63 216.55, 1042.5 73.69, 1275.75 -192.17 M801.16 359.88 C973.38 159.41, 1145.92 -39.85, 1280.08 -191.06 M801.16 359.88 C977.93 158.87, 1153.1 -42.56, 1280.08 -191.06 M806.14 360.24 C919.48 229.78, 1033.05 99.6, 1283.76 -189.19 M806.14 360.24 C911.02 239.33, 1017.53 117.5, 1283.76 -189.19 M810.48 361.36 C938.79 211.96, 1068.23 63.67, 1288.09 -188.07 M810.48 361.36 C976.05 169.67, 1144.01 -23.11, 1288.09 -188.07 M815.46 361.72 C919.48 238.17, 1026.33 116.18, 1291.76 -186.2 M815.46 361.72 C960.74 197.36, 1104.54 32.28, 1291.76 -186.2 M819.79 362.83 C966.46 194.6, 1114.84 24.65, 1295.44 -184.33 M819.79 362.83 C976.25 181.08, 1132.48 1.54, 1295.44 -184.33 M824.78 363.19 C951.44 214.86, 1078.72 69.04, 1299.11 -182.46 M824.78 363.19 C998.15 162.53, 1171 -36.67, 1299.11 -182.46 M829.77 363.55 C985.1 184.99, 1139.06 8.9, 1303.44 -181.35 M829.77 363.55 C975.15 197.95, 1119.77 32.07, 1303.44 -181.35 M834.75 363.91 C962.71 218.1, 1089.01 72.6, 1307.12 -179.48 M834.75 363.91 C1013.11 159.68, 1191.71 -45.57, 1307.12 -179.48 M839.74 364.27 C945.89 241.05, 1053.42 118.86, 1310.79 -177.61 M839.74 364.27 C951.29 237.88, 1060.41 111.69, 1310.79 -177.61 M844.73 364.63 C1001.34 181.58, 1160.2 0.52, 1314.47 -175.74 M844.73 364.63 C992.56 196.79, 1137.83 29.15, 1314.47 -175.74 M849.72 364.99 C993.99 198.39, 1138.64 30.71, 1318.14 -173.87 M849.72 364.99 C999.29 190.11, 1150.28 16.12, 1318.14 -173.87 M855.36 364.6 C1001.11 196.55, 1147.3 29.34, 1321.82 -172 M855.36 364.6 C962.66 238.31, 1071.3 113.52, 1321.82 -172 M860.35 364.96 C1017.23 185.53, 1172.44 4.61, 1326.15 -170.89 M860.35 364.96 C1016.55 185.31, 1171.39 6.92, 1326.15 -170.89 M865.99 364.56 C985.03 226.5, 1104.83 88, 1329.82 -169.02 M865.99 364.56 C967.12 248.24, 1068.8 131.09, 1329.82 -169.02 M870.98 364.92 C980.67 236.97, 1090.39 110.4, 1333.5 -167.15 M870.98 364.92 C997.96 219.95, 1123.89 74.55, 1333.5 -167.15 M876.62 364.53 C1042.3 173.35, 1208.49 -17.82, 1337.17 -165.28 M876.62 364.53 C986.9 237.47, 1098.42 109.23, 1337.17 -165.28 M881.61 364.89 C987.49 241.66, 1094.32 120.37, 1340.85 -163.41 M881.61 364.89 C1022.01 202.56, 1163.33 39.16, 1340.85 -163.41 M887.25 364.5 C994.13 245.13, 1098.47 124.71, 1344.52 -161.54 M887.25 364.5 C1014.42 219, 1141.31 72.32, 1344.52 -161.54 M892.24 364.86 C1027.6 211.14, 1161.15 57.05, 1347.54 -158.91 M892.24 364.86 C1004.55 232.93, 1118.23 101.63, 1347.54 -158.91 M897.88 364.46 C1075.93 158.95, 1254.02 -46.27, 1350.56 -156.29 M897.88 364.46 C987.96 259.72, 1079.95 153.99, 1350.56 -156.29 M902.87 364.82 C1033.01 214.45, 1162.41 66.12, 1354.24 -154.42 M902.87 364.82 C1020.65 226.54, 1140.07 88.91, 1354.24 -154.42 M907.85 365.18 C1001.17 255.41, 1096.26 147.6, 1355.94 -150.29 M907.85 365.18 C1042.01 210.45, 1175.28 57.19, 1355.94 -150.29 M913.5 364.79 C1019.16 242.38, 1125.32 119.59, 1358.3 -146.91 M913.5 364.79 C1079.98 177.31, 1244.13 -12.34, 1358.3 -146.91 M918.48 365.15 C1080.23 180.17, 1240.68 -3.95, 1360.67 -143.53 M918.48 365.15 C1069.29 191.93, 1219.73 18.84, 1360.67 -143.53 M924.13 364.75 C1037.28 236.31, 1149.14 108.42, 1363.03 -140.15 M924.13 364.75 C1069.98 195.98, 1215.56 27.95, 1363.03 -140.15 M929.11 365.11 C1080.75 188.57, 1233.28 12.55, 1365.39 -136.77 M929.11 365.11 C1067.86 208.11, 1204.78 50.58, 1365.39 -136.77 M934.1 365.47 C1023.7 260.09, 1114.53 155.41, 1367.1 -132.64 M934.1 365.47 C1094.52 180.38, 1256.91 -6.5, 1367.1 -132.64 M939.74 365.08 C1113.18 169.12, 1284.56 -27.94, 1368.81 -128.5 M939.74 365.08 C1067.62 216.88, 1197.35 67.76, 1368.81 -128.5 M944.73 365.44 C1055.56 239.79, 1163.72 114.9, 1370.51 -124.37 M944.73 365.44 C1058.05 235.33, 1171.41 104.5, 1370.51 -124.37 M950.37 365.04 C1101.63 189.64, 1254.23 14.78, 1372.22 -120.24 M950.37 365.04 C1114.29 174.8, 1278.11 -14.13, 1372.22 -120.24 M955.36 365.4 C1088.39 214.71, 1220.04 63.29, 1373.93 -116.1 M955.36 365.4 C1050.64 255.67, 1146.9 144.28, 1373.93 -116.1 M961 365.01 C1047.27 265.93, 1133.71 167.53, 1375.63 -111.97 M961 365.01 C1112.41 193.36, 1262.45 19.99, 1375.63 -111.97 M966.65 364.61 C1124.96 182.8, 1283.64 -0.25, 1376.68 -107.08 M966.65 364.61 C1068.9 250.39, 1168.54 135.18, 1376.68 -107.08 M971.63 364.97 C1107.11 207.86, 1242.68 49.59, 1377.73 -102.19 M971.63 364.97 C1056.87 266.39, 1141.97 169.33, 1377.73 -102.19 M977.28 364.58 C1073.8 251.52, 1171.51 140.2, 1378.79 -97.3 M977.28 364.58 C1110.11 209.73, 1243.57 56.08, 1378.79 -97.3 M982.26 364.94 C1088.01 241.58, 1195.53 118.81, 1379.84 -92.41 M982.26 364.94 C1067.92 266.08, 1155.34 165.8, 1379.84 -92.41 M987.91 364.54 C1117.46 218.7, 1244.81 73.46, 1380.89 -87.53 M987.91 364.54 C1093.56 239.48, 1200.92 115.76, 1380.89 -87.53 M992.89 364.9 C1125.76 211.4, 1258.14 58.91, 1380.63 -81.13 M992.89 364.9 C1101.89 238.65, 1211.76 112.26, 1380.63 -81.13 M998.54 364.51 C1093.51 254.16, 1188.93 144.5, 1380.36 -74.73 M998.54 364.51 C1111.16 232.73, 1224.36 102.61, 1380.36 -74.73 M1003.52 364.87 C1090.05 264.65, 1177.62 162.42, 1380.1 -68.33 M1003.52 364.87 C1151.36 192.23, 1300.74 20.65, 1380.1 -68.33 M1009.17 364.48 C1126.39 230.77, 1242.91 97.59, 1379.84 -61.94 M1009.17 364.48 C1150.73 201.83, 1292.84 38.42, 1379.84 -61.94 M1014.81 364.08 C1098.22 268.37, 1179.94 173.95, 1380.24 -56.29 M1014.81 364.08 C1143.8 216.1, 1271.84 68.91, 1380.24 -56.29 M1019.8 364.44 C1157.33 208.68, 1292.26 53.28, 1379.97 -49.89 M1019.8 364.44 C1151.56 212.63, 1283.05 61.02, 1379.97 -49.89 M1025.44 364.05 C1142.16 228.19, 1260.24 92.3, 1379.71 -43.5 M1025.44 364.05 C1112.93 265.77, 1199.16 167.09, 1379.71 -43.5 M1030.43 364.41 C1164.64 213.84, 1296.43 61.18, 1379.45 -37.1 M1030.43 364.41 C1111.87 273.11, 1191.02 181.8, 1379.45 -37.1 M1036.07 364.01 C1171.12 207.23, 1306.32 50.99, 1379.19 -30.7 M1036.07 364.01 C1164.53 217.26, 1291.59 71.7, 1379.19 -30.7 M1041.71 363.62 C1119.24 273.28, 1198.2 183.76, 1378.93 -24.3 M1041.71 363.62 C1110.17 282.96, 1179.71 203.51, 1378.93 -24.3 M1047.36 363.22 C1171.62 222.19, 1295.81 78.77, 1379.32 -18.66 M1047.36 363.22 C1158.72 236.61, 1269 109.51, 1379.32 -18.66 M1053 362.83 C1154.61 241.84, 1259.49 122.85, 1378.41 -11.51 M1053 362.83 C1146.34 256.14, 1240.22 148.49, 1378.41 -11.51 M1057.99 363.19 C1137.57 271.88, 1215.85 179.88, 1377.49 -4.36 M1057.99 363.19 C1164.74 242.37, 1269.38 121.45, 1377.49 -4.36 M1063.63 362.79 C1125.83 291.96, 1188.89 219.31, 1376.57 2.8 M1063.63 362.79 C1160.16 250.02, 1257.36 138.1, 1376.57 2.8 M1069.27 362.4 C1171.92 244.75, 1273.3 127.26, 1376.31 9.2 M1069.27 362.4 C1150.46 269.07, 1230.94 176.51, 1376.31 9.2 M1074.92 362 C1167.27 256.48, 1258.16 150.99, 1375.39 16.35 M1074.92 362 C1153.31 269.85, 1233.5 177.94, 1375.39 16.35 M1080.56 361.61 C1185.21 243.35, 1289.96 123.72, 1374.47 23.5 M1080.56 361.61 C1150.78 281.6, 1220.17 200.37, 1374.47 23.5 M1086.2 361.22 C1155.24 279.48, 1226.76 199.4, 1373.56 30.65 M1086.2 361.22 C1200.01 229.73, 1313.74 98.63, 1373.56 30.65 M1092.5 360.07 C1195.14 242.98, 1296.28 127.11, 1371.98 38.56 M1092.5 360.07 C1164.66 277.78, 1236.65 195.14, 1371.98 38.56 M1098.8 358.92 C1175.87 266.32, 1254.75 175.45, 1371.06 45.71 M1098.8 358.92 C1180.57 264.99, 1260.66 172, 1371.06 45.71 M1104.44 358.52 C1170.97 280.74, 1239.1 205.6, 1370.15 52.86 M1104.44 358.52 C1191.6 258.4, 1279.41 156.03, 1370.15 52.86 M1110.74 357.37 C1190.03 269.27, 1265.34 178.82, 1369.23 60.02 M1110.74 357.37 C1166.28 293.49, 1220.34 232.35, 1369.23 60.02 M1117.04 356.22 C1168.65 298.56, 1219.53 240.79, 1367.66 67.92 M1117.04 356.22 C1208.26 249.89, 1300.79 144.25, 1367.66 67.92 M1123.34 355.07 C1221.28 243.28, 1316.15 132.67, 1366.74 75.08 M1123.34 355.07 C1204.57 263.14, 1285.18 169.97, 1366.74 75.08 M1129.64 353.92 C1189.38 285.18, 1248.33 217.94, 1365.82 82.23 M1129.64 353.92 C1194.82 277.88, 1260.57 203.16, 1365.82 82.23 M1135.94 352.78 C1198.3 280.42, 1261.06 207.83, 1364.9 89.38 M1135.94 352.78 C1206.85 271.63, 1278.26 190.31, 1364.9 89.38 M1142.24 351.63 C1218.09 265.48, 1296.39 175.92, 1363.33 97.29 M1142.24 351.63 C1198.54 285.7, 1257.88 217.39, 1363.33 97.29 M1148.54 350.48 C1217.47 274.75, 1283.87 197.15, 1362.41 104.44 M1148.54 350.48 C1223.83 265.79, 1297.6 179.23, 1362.41 104.44 M1154.84 349.33 C1209.66 289.35, 1260.18 227.3, 1361.5 111.59 M1154.84 349.33 C1228.97 266.93, 1301.82 183.8, 1361.5 111.59 M1160.48 348.93 C1212.3 291.99, 1264.47 231.02, 1360.58 118.75 M1160.48 348.93 C1218.48 281.25, 1279.19 212.32, 1360.58 118.75 M1172.03 341.75 C1222.9 281.33, 1272.89 224, 1359 126.65 M1172.03 341.75 C1218.17 289.41, 1264.5 236.69, 1359 126.65 M1182.92 335.31 C1237.29 272.54, 1295.59 205.37, 1358.09 133.81 M1182.92 335.31 C1246.25 262.47, 1307.78 190.78, 1358.09 133.81 M1193.81 328.88 C1246.01 265.31, 1299.87 207.6, 1355.2 143.22 M1193.81 328.88 C1236.1 279.1, 1280.88 229, 1355.2 143.22 M1205.36 321.69 C1249.51 269.49, 1295.47 217.83, 1352.32 152.64 M1205.36 321.69 C1262.78 256.06, 1320.12 192.01, 1352.32 152.64 M1218.87 312.24 C1252.29 274.43, 1282.1 239.76, 1346.15 165.83 M1218.87 312.24 C1247.8 275.84, 1278.1 242.29, 1346.15 165.83 M1240.92 292.98 C1259.11 269.7, 1278.47 246.81, 1311.77 211.47 M1240.92 292.98 C1268.88 260.77, 1294.88 228.87, 1311.77 211.47" stroke="#ffec99" stroke-width="0.5" fill="none"></path><path fill="#f08c00" d="M 2.03,-0.20 Q 2.03,-0.20 2.22,2.68 2.41,5.56 2.59,7.08 2.76,8.61 3.01,12.12 3.27,15.63 3.43,17.42 3.58,19.21 3.90,21.03 4.22,22.85 5.22,25.10 6.23,27.34 6.90,29.35 7.58,31.37 8.00,32.54 8.43,33.72 9.78,35.94 11.13,38.15 12.74,43.15 14.35,48.15 15.54,51.04 16.72,53.94 18.37,58.10 20.02,62.27 20.72,64.68 21.42,67.09 23.97,72.90 26.51,78.70 30.44,85.75 34.37,92.79 36.60,96.36 38.84,99.93 41.81,104.93 44.78,109.93 47.13,112.83 49.48,115.73 53.98,121.92 58.47,128.10 62.94,133.87 67.42,139.63 76.77,150.40 86.13,161.17 90.97,166.61 95.81,172.05 111.01,183.78 126.21,195.50 136.71,203.09 147.21,210.68 170.29,222.49 193.36,234.29 204.07,239.91 214.78,245.53 223.90,249.62 233.01,253.72 237.78,256.05 242.55,258.38 255.11,262.20 267.67,266.03 275.62,268.24 283.57,270.45 318.83,277.71 354.08,284.97 372.52,288.34 390.95,291.71 410.58,295.16 430.20,298.61 446.61,301.80 463.01,304.99 473.42,306.92 483.84,308.85 517.85,313.98 551.87,319.11 573.25,322.73 594.63,326.35 626.12,331.05 657.61,335.75 675.62,338.90 693.63,342.05 712.74,344.53 731.86,347.01 742.85,348.07 753.84,349.12 775.52,352.45 797.20,355.78 809.00,357.77 820.79,359.76 846.99,360.60 873.18,361.43 891.25,361.79 909.31,362.15 933.65,362.30 958.00,362.46 972.95,362.52 987.90,362.59 1012.64,362.04 1037.37,361.49 1053.63,360.68 1069.88,359.88 1093.70,356.66 1117.52,353.45 1131.36,350.65 1145.20,347.86 1163.03,339.52 1180.87,331.19 1189.34,326.78 1197.82,322.37 1211.69,311.92 1225.56,301.48 1247.80,277.54 1270.04,253.60 1281.53,241.10 1293.03,228.59 1309.38,207.51 1325.73,186.43 1335.49,164.07 1345.25,141.72 1349.70,129.89 1354.16,118.06 1357.76,101.61 1361.35,85.16 1363.47,74.98 1365.58,64.79 1368.49,45.83 1371.39,26.87 1373.49,0.45 1375.58,-25.97 1376.47,-39.22 1377.37,-52.48 1377.17,-66.97 1376.97,-81.46 1372.31,-98.12 1367.65,-114.78 1364.82,-124.18 1361.99,-133.59 1352.29,-143.70 1342.59,-153.80 1337.58,-158.45 1332.57,-163.10 1312.76,-172.46 1292.95,-181.82 1281.60,-186.98 1270.25,-192.15 1249.67,-198.93 1229.10,-205.70 1208.60,-210.30 1188.10,-214.89 1176.52,-216.85 1164.94,-218.80 1154.82,-220.79 1144.69,-222.77 1126.69,-223.61 1108.69,-224.44 1098.70,-224.79 1088.72,-225.15 1066.95,-225.30 1045.19,-225.46 1032.19,-225.52 1019.20,-225.59 977.45,-225.61 935.71,-225.64 913.94,-225.65 892.17,-225.66 867.97,-225.67 843.77,-225.67 830.32,-225.68 816.87,-225.68 801.38,-225.68 785.89,-225.68 777.87,-225.68 769.85,-225.68 752.93,-225.68 736.01,-225.68 717.89,-225.68 699.78,-225.68 691.21,-225.68 682.65,-225.68 670.68,-225.68 658.70,-225.68 651.88,-225.68 645.07,-225.68 635.27,-225.68 625.48,-225.68 617.86,-225.68 610.25,-225.68 594.94,-225.68 579.63,-225.68 570.82,-225.68 562.01,-225.68 545.05,-225.68 528.08,-225.68 472.57,-225.68 417.06,-225.68 391.45,-225.68 365.85,-225.68 341.46,-225.39 317.07,-225.11 305.57,-224.70 294.07,-224.29 279.46,-222.39 264.85,-220.50 256.31,-219.41 247.78,-218.31 231.29,-214.12 214.81,-209.93 206.03,-207.86 197.26,-205.78 188.13,-202.62 179.01,-199.46 174.24,-197.82 169.47,-196.18 161.79,-192.07 154.11,-187.97 149.98,-185.37 145.86,-182.76 138.34,-177.91 130.83,-173.07 125.35,-169.29 119.87,-165.51 110.67,-158.18 101.47,-150.85 96.69,-146.87 91.91,-142.88 85.29,-137.17 78.66,-131.46 74.96,-128.44 71.27,-125.42 65.67,-120.98 60.08,-116.53 57.14,-114.08 54.20,-111.63 50.67,-108.31 47.15,-104.99 45.10,-102.74 43.05,-100.49 39.63,-95.56 36.21,-90.63 33.85,-87.61 31.49,-84.60 27.35,-78.76 23.21,-72.91 21.48,-69.89 19.74,-66.88 16.42,-60.42 13.10,-53.97 11.70,-50.69 10.30,-47.40 9.15,-43.20 8.00,-38.99 7.51,-36.90 7.01,-34.81 6.82,-32.01 6.62,-29.20 5.65,-25.54 4.67,-21.88 4.00,-20.01 3.33,-18.14 2.14,-15.61 0.96,-13.09 -0.09,-10.35 -1.15,-7.62 -1.49,-6.16 -1.84,-4.70 -2.26,-3.70 -2.68,-2.70 -1.64,-2.42 -0.61,-2.13 -0.26,-2.10 0.08,-2.06 0.40,-1.92 0.72,-1.77 0.98,-1.54 1.23,-1.30 1.40,-0.99 1.57,-0.68 1.63,-0.33 1.69,0.00 1.64,0.35 1.58,0.70 1.42,1.01 1.26,1.32 1.01,1.56 0.76,1.81 0.44,1.96 0.12,2.11 -0.21,2.15 -0.56,2.19 -0.91,2.12 -1.25,2.05 -1.55,1.87 -1.86,1.70 -2.09,1.43 -2.32,1.17 -2.45,0.84 -2.58,0.52 -2.61,0.17 -2.63,-0.17 -2.54,-0.51 -2.45,-0.85 -2.26,-1.15 -2.06,-1.44 -1.79,-1.65 -1.51,-1.87 -1.18,-1.99 -0.84,-2.10 -0.49,-2.11 -0.14,-2.11 0.18,-2.00 0.52,-1.89 0.80,-1.68 1.08,-1.47 1.28,-1.19 1.48,-0.90 1.58,-0.56 1.68,-0.22 1.66,0.12 1.65,0.47 1.52,0.80 1.39,1.12 1.17,1.39 0.94,1.66 0.65,1.85 0.35,2.03 0.00,2.11 -0.33,2.19 -0.33,2.19 -0.33,2.19 -3.11,0.37 -5.90,-1.45 -5.36,-3.54 -4.81,-5.63 -4.25,-7.11 -3.69,-8.59 -2.61,-11.42 -1.54,-14.25 -0.41,-16.70 0.71,-19.15 1.42,-20.86 2.14,-22.57 3.07,-25.98 4.00,-29.40 4.23,-32.41 4.46,-35.42 4.96,-37.55 5.47,-39.68 6.68,-44.06 7.88,-48.43 9.32,-51.80 10.76,-55.17 14.12,-61.68 17.47,-68.19 19.27,-71.31 21.07,-74.43 25.24,-80.32 29.42,-86.22 31.74,-89.17 34.05,-92.13 37.58,-97.19 41.11,-102.26 43.23,-104.58 45.35,-106.90 48.93,-110.27 52.52,-113.64 55.48,-116.12 58.44,-118.59 64.02,-123.02 69.61,-127.46 73.28,-130.45 76.95,-133.45 83.59,-139.17 90.23,-144.90 95.03,-148.90 99.83,-152.90 109.10,-160.29 118.37,-167.68 123.89,-171.47 129.40,-175.27 136.93,-180.13 144.46,-184.99 148.66,-187.64 152.87,-190.28 160.74,-194.47 168.61,-198.66 173.38,-200.30 178.15,-201.94 187.40,-205.14 196.65,-208.34 205.40,-210.41 214.16,-212.48 230.80,-216.70 247.44,-220.92 255.98,-222.01 264.51,-223.10 279.24,-225.01 293.97,-226.91 305.51,-227.32 317.04,-227.73 341.44,-228.02 365.85,-228.31 391.45,-228.31 417.06,-228.31 472.57,-228.31 528.08,-228.31 545.05,-228.31 562.01,-228.31 570.82,-228.31 579.63,-228.31 594.94,-228.31 610.25,-228.31 617.86,-228.31 625.48,-228.31 635.27,-228.31 645.07,-228.31 651.88,-228.31 658.70,-228.31 670.68,-228.31 682.65,-228.31 691.21,-228.31 699.78,-228.31 717.89,-228.31 736.01,-228.31 752.93,-228.31 769.85,-228.31 777.87,-228.31 785.89,-228.31 801.38,-228.31 816.87,-228.31 830.32,-228.30 843.77,-228.30 867.97,-228.30 892.17,-228.29 913.94,-228.28 935.71,-228.27 977.46,-228.24 1019.21,-228.21 1032.21,-228.15 1045.21,-228.08 1067.01,-227.93 1088.81,-227.78 1098.81,-227.42 1108.81,-227.06 1127.00,-226.21 1145.19,-225.35 1155.29,-223.37 1165.38,-221.39 1177.03,-219.42 1188.68,-217.46 1209.30,-212.82 1229.92,-208.19 1250.63,-201.37 1271.33,-194.54 1282.70,-189.37 1294.08,-184.19 1314.20,-174.62 1334.33,-165.05 1339.41,-160.33 1344.49,-155.61 1354.46,-145.04 1364.44,-134.46 1367.31,-124.97 1370.18,-115.48 1374.89,-98.50 1379.60,-81.52 1379.79,-66.91 1379.99,-52.30 1379.09,-39.03 1378.20,-25.76 1376.09,0.75 1373.99,27.27 1371.07,46.30 1368.15,65.33 1366.04,75.53 1363.92,85.73 1360.27,102.36 1356.62,118.99 1352.14,130.88 1347.65,142.77 1337.73,165.40 1327.81,188.02 1311.39,209.20 1294.96,230.37 1283.46,242.88 1271.96,255.39 1249.55,279.48 1227.15,303.57 1213.09,314.13 1199.03,324.70 1190.51,329.14 1181.98,333.57 1163.86,342.00 1145.74,350.43 1131.81,353.24 1117.87,356.05 1093.94,359.28 1070.01,362.50 1053.72,363.31 1037.43,364.12 1012.66,364.66 987.89,365.21 972.94,365.15 957.98,365.08 933.62,364.93 909.26,364.78 891.18,364.42 873.10,364.06 846.73,363.21 820.36,362.35 808.58,360.37 796.80,358.38 775.20,355.06 753.59,351.74 742.56,350.68 731.52,349.62 712.35,347.13 693.17,344.64 675.20,341.49 657.23,338.35 625.71,333.64 594.19,328.94 572.83,325.32 551.48,321.71 517.42,316.57 483.36,311.43 472.93,309.50 462.51,307.57 446.13,304.38 429.75,301.19 410.12,297.74 390.48,294.30 372.02,290.92 353.55,287.54 318.21,280.26 282.87,272.99 274.88,270.76 266.90,268.54 254.15,264.64 241.40,260.74 236.66,258.43 231.93,256.12 222.74,251.99 213.56,247.86 202.86,242.25 192.16,236.64 168.91,224.73 145.67,212.83 135.13,205.21 124.59,197.59 109.21,185.71 93.84,173.82 88.98,168.37 84.12,162.91 74.71,152.10 65.30,141.28 60.79,135.49 56.29,129.69 51.83,123.57 47.37,117.45 44.89,114.40 42.41,111.35 39.43,106.39 36.45,101.44 34.15,97.83 31.85,94.21 27.81,87.06 23.77,79.92 21.10,73.97 18.43,68.02 17.69,65.78 16.95,63.54 15.20,59.46 13.45,55.38 12.04,52.41 10.64,49.44 8.88,44.70 7.12,39.96 6.64,38.79 6.16,37.62 5.37,36.26 4.58,34.90 4.35,33.80 4.12,32.70 3.24,30.71 2.36,28.72 1.95,27.40 1.54,26.09 1.14,24.79 0.74,23.50 0.36,21.50 -0.01,19.51 -0.14,17.74 -0.27,15.97 -0.70,12.44 -1.12,8.92 -1.19,7.43 -1.26,5.93 -1.65,3.06 -2.03,0.20 -2.03,-0.04 -2.02,-0.28 -1.96,-0.52 -1.89,-0.76 -1.78,-0.98 -1.66,-1.19 -1.49,-1.38 -1.32,-1.56 -1.11,-1.69 -0.91,-1.83 -0.68,-1.91 -0.44,-1.99 -0.20,-2.02 0.04,-2.04 0.28,-2.01 0.53,-1.97 0.76,-1.88 0.99,-1.79 1.19,-1.64 1.39,-1.50 1.55,-1.31 1.71,-1.12 1.82,-0.90 1.93,-0.68 1.98,-0.44 2.03,-0.20 2.03,-0.20 L 2.03,-0.20 Z"></path></g><g transform="translate(245.33332061767578 760.3251484636208) rotate(0 410.5000000000002 -20)" stroke="none"><path d="M8.44 -94.69 C8.44 -94.69, 8.44 -94.69, 8.44 -94.69 M8.44 -94.69 C8.44 -94.69, 8.44 -94.69, 8.44 -94.69 M0.31 -79.23 C7.06 -85, 9.61 -88.34, 23.93 -106.4 M0.31 -79.23 C8.75 -88.57, 17.92 -99.89, 23.93 -106.4 M-0.61 -72.08 C11.85 -85.11, 21.32 -99.33, 37.44 -115.85 M-0.61 -72.08 C14.1 -88.52, 29.42 -105.6, 37.44 -115.85 M-4.15 -61.91 C17.23 -83.55, 34.05 -108.25, 51.62 -126.06 M-4.15 -61.91 C14.95 -82.44, 32.49 -102.8, 51.62 -126.06 M-3.75 -56.26 C17.16 -83.41, 41.84 -106.48, 59.23 -128.72 M-3.75 -56.26 C13.6 -74.53, 30.54 -95.41, 59.23 -128.72 M-4.02 -49.87 C13.82 -69.67, 30.12 -88.53, 67.49 -132.13 M-4.02 -49.87 C18.16 -73.75, 37.9 -98.65, 67.49 -132.13 M-3.62 -44.22 C23.42 -72.29, 47.61 -103.66, 75.76 -135.54 M-3.62 -44.22 C25.62 -79.97, 55.86 -114.5, 75.76 -135.54 M-2.57 -39.33 C30.34 -74.25, 60.86 -111.08, 84.03 -138.96 M-2.57 -39.33 C27.87 -72.71, 56.58 -106.17, 84.03 -138.96 M-2.18 -33.69 C29.21 -68.48, 61.27 -105.4, 91.64 -141.62 M-2.18 -33.69 C29.43 -72.21, 63.69 -110.01, 91.64 -141.62 M-1.78 -28.05 C25.46 -62.14, 54.38 -93, 99.91 -145.03 M-1.78 -28.05 C29.05 -63.94, 60.03 -98.57, 99.91 -145.03 M-1.39 -22.41 C31.28 -57.13, 61.44 -93.92, 108.18 -148.44 M-1.39 -22.41 C30.78 -56.44, 60.96 -92.86, 108.18 -148.44 M-0.99 -16.76 C26.59 -44.88, 50.64 -73.64, 115.79 -151.1 M-0.99 -16.76 C37.3 -63.48, 76.78 -108.87, 115.79 -151.1 M-0.6 -11.12 C47.51 -65.34, 93.69 -119.15, 124.05 -154.51 M-0.6 -11.12 C50.33 -67.96, 98.51 -126.49, 124.05 -154.51 M-0.2 -5.48 C35.19 -46.95, 71.61 -88.25, 134.29 -160.19 M-0.2 -5.48 C26.6 -35.37, 53.49 -67.2, 134.29 -160.19 M0.19 0.17 C0.19 0.17, 0.19 0.17, 0.19 0.17 M0.19 0.17 C0.19 0.17, 0.19 0.17, 0.19 0.17 M0.19 0.17 C32.82 -40.95, 70.65 -78.17, 143.87 -165.11 M0.19 0.17 C49.88 -56.75, 99.2 -113.49, 143.87 -165.11 M2.55 3.55 C36.6 -34.98, 65.77 -71.14, 151.48 -167.77 M2.55 3.55 C52.69 -53.25, 101.37 -110.61, 151.48 -167.77 M4.92 6.92 C60.03 -57.5, 113.69 -118.54, 157.12 -168.17 M4.92 6.92 C37.34 -32.85, 71.86 -71.56, 157.12 -168.17 M7.28 10.3 C39.85 -27.14, 71.5 -65.4, 163.42 -169.32 M7.28 10.3 C51.73 -41.69, 97.48 -94.59, 163.42 -169.32 M9.64 13.68 C72.24 -56.33, 133.89 -127.57, 169.07 -169.71 M9.64 13.68 C40.3 -24.9, 72.57 -61.59, 169.07 -169.71 M12.01 17.06 C73.57 -55, 136.75 -127.53, 175.36 -170.86 M12.01 17.06 C63.04 -42.63, 114.83 -101.41, 175.36 -170.86 M14.37 20.44 C63.21 -30.66, 108.61 -84.88, 181.66 -172.01 M14.37 20.44 C52.8 -25.23, 90.9 -70.65, 181.66 -172.01 M16.73 23.82 C53.16 -15.09, 86.46 -56.73, 187.31 -172.41 M16.73 23.82 C68.96 -37, 121.27 -96.68, 187.31 -172.41 M19.09 27.2 C79.8 -40.33, 138.77 -108.67, 192.95 -172.8 M19.09 27.2 C86.4 -49.9, 154.55 -127.73, 192.95 -172.8 M21.46 30.58 C90.76 -46.61, 158.05 -126.08, 198.59 -173.19 M21.46 30.58 C78.35 -35.22, 135.28 -99.88, 198.59 -173.19 M23.82 33.96 C76.58 -27.86, 130.6 -86.57, 204.24 -173.59 M23.82 33.96 C80.26 -31.18, 138.33 -98.32, 204.24 -173.59 M26.18 37.34 C64.71 -9.72, 105.35 -56.4, 209.22 -173.23 M26.18 37.34 C70.47 -14.77, 117.25 -66.88, 209.22 -173.23 M29.2 39.96 C103.92 -43.19, 175.12 -128.13, 214.87 -173.62 M29.2 39.96 C104.63 -44.9, 178.12 -130.16, 214.87 -173.62 M32.88 41.83 C84.21 -20.53, 138.88 -80.55, 220.51 -174.02 M32.88 41.83 C99.61 -35.37, 166.87 -111.19, 220.51 -174.02 M36.55 43.7 C91.97 -20.6, 150.28 -84.97, 226.15 -174.41 M36.55 43.7 C112.17 -42.16, 185.28 -126.56, 226.15 -174.41 M39.57 46.32 C100.32 -22.9, 160.22 -92.2, 231.8 -174.81 M39.57 46.32 C105.56 -27.52, 171.14 -102.25, 231.8 -174.81 M42.59 48.95 C122.69 -40.5, 199.38 -128.48, 237.44 -175.2 M42.59 48.95 C113.8 -32.86, 185 -113.63, 237.44 -175.2 M45.61 51.57 C110.35 -23.91, 174.29 -97.59, 243.08 -175.6 M45.61 51.57 C95.66 -7.45, 143.99 -64.19, 243.08 -175.6 M48.63 54.2 C108.6 -17.19, 173.71 -88.79, 248.72 -175.99 M48.63 54.2 C124.92 -33.88, 201.52 -121.87, 248.72 -175.99 M51.65 56.82 C116.38 -19.01, 181.38 -93.25, 254.37 -176.39 M51.65 56.82 C92.34 10.05, 134.68 -38.72, 254.37 -176.39 M54.66 59.44 C135.04 -30.42, 211.16 -120.01, 260.01 -176.78 M54.66 59.44 C101.73 5.48, 148.31 -46.43, 260.01 -176.78 M57.68 62.07 C130.34 -19.89, 203.27 -102.82, 265.65 -177.17 M57.68 62.07 C110.59 -0.34, 164.66 -63.81, 265.65 -177.17 M60.7 64.69 C138.34 -24.85, 217.34 -111.93, 271.3 -177.57 M60.7 64.69 C114.36 3.02, 169.17 -58.8, 271.3 -177.57 M65.69 65.05 C118.23 6.15, 170.62 -55.96, 276.94 -177.96 M65.69 65.05 C135.98 -14.89, 205.4 -94.58, 276.94 -177.96 M69.36 66.92 C141.47 -21.17, 216.3 -105.92, 282.58 -178.36 M69.36 66.92 C145.53 -20.17, 221.66 -107.37, 282.58 -178.36 M73.04 68.79 C145.38 -15.05, 216.39 -96.2, 288.23 -178.75 M73.04 68.79 C129.62 0.97, 186.38 -64.65, 288.23 -178.75 M76.06 71.42 C132.66 8.66, 185.1 -51.8, 294.52 -179.9 M76.06 71.42 C163.09 -29.39, 250.52 -130.56, 294.52 -179.9 M79.73 73.29 C144.72 -1.46, 207.18 -73.64, 300.17 -180.3 M79.73 73.29 C166.49 -25.45, 253.4 -124.8, 300.17 -180.3 M82.75 75.91 C144.57 5.14, 208.77 -69.04, 305.16 -179.94 M82.75 75.91 C162.09 -15.21, 241.51 -108.43, 305.16 -179.94 M86.43 77.78 C146.36 8.93, 205.78 -58.5, 310.8 -180.33 M86.43 77.78 C171.27 -19.49, 254.26 -115.11, 310.8 -180.33 M90.76 78.89 C165.46 -5.77, 236.58 -88.28, 316.44 -180.73 M90.76 78.89 C140.18 21.5, 190.37 -36.44, 316.44 -180.73 M94.43 80.76 C184.19 -22.35, 275.63 -126.27, 322.08 -181.12 M94.43 80.76 C168.5 -3.45, 241.07 -87.72, 322.08 -181.12 M98.11 82.63 C178.44 -6.96, 254.19 -94.45, 327.07 -180.76 M98.11 82.63 C156.96 13.84, 217.35 -55.58, 327.07 -180.76 M101.78 84.5 C166.86 9.16, 234.37 -68.05, 332.71 -181.16 M101.78 84.5 C173.78 2.14, 245.2 -79.97, 332.71 -181.16 M105.46 86.37 C185.46 -1.2, 262.6 -92.22, 338.36 -181.55 M105.46 86.37 C188.45 -9.69, 271.96 -105.62, 338.36 -181.55 M109.13 88.24 C181.52 3, 253.26 -81.48, 343.34 -181.19 M109.13 88.24 C168.27 19.95, 226.01 -47.13, 343.34 -181.19 M112.15 90.87 C168.55 27.13, 226.31 -38.23, 348.99 -181.58 M112.15 90.87 C184.75 8.45, 256.69 -74.94, 348.99 -181.58 M115.83 92.74 C191.61 4.6, 269.76 -85.14, 354.63 -181.98 M115.83 92.74 C168.37 30.72, 222.59 -31.1, 354.63 -181.98 M119.5 94.6 C168.29 39.72, 215.6 -16.08, 360.27 -182.37 M119.5 94.6 C185.88 18.32, 252.52 -57.04, 360.27 -182.37 M123.17 96.47 C204.02 2.08, 287.6 -93.78, 365.92 -182.77 M123.17 96.47 C210.99 -0.53, 296.33 -99.46, 365.92 -182.77 M126.85 98.34 C199.39 14.05, 270.45 -68.94, 371.56 -183.16 M126.85 98.34 C214.54 -2.14, 303.58 -104.79, 371.56 -183.16 M130.52 100.21 C197.65 23.22, 264.55 -52.4, 377.2 -183.56 M130.52 100.21 C207.25 12.35, 282.65 -74.81, 377.2 -183.56 M134.2 102.08 C188.46 40.13, 242.05 -20.5, 382.85 -183.95 M134.2 102.08 C198.59 27.58, 261.74 -45.19, 382.85 -183.95 M137.22 104.71 C231.13 -3.62, 324.56 -112.98, 388.49 -184.35 M137.22 104.71 C193.13 40.56, 247.65 -22.92, 388.49 -184.35 M140.89 106.58 C238.46 -4.92, 335.37 -116.27, 393.48 -183.99 M140.89 106.58 C227.17 9.12, 312.74 -88.84, 393.48 -183.99 M145.22 107.69 C197.03 46.67, 250.22 -13.76, 399.12 -184.38 M145.22 107.69 C238.36 3.49, 330.03 -101.38, 399.12 -184.38 M148.9 109.56 C210.57 38.94, 271.4 -32.7, 404.76 -184.78 M148.9 109.56 C201.36 47.13, 254.54 -13.64, 404.76 -184.78 M152.57 111.43 C222.62 31.11, 292.69 -51.01, 410.41 -185.17 M152.57 111.43 C220.7 32.04, 288.23 -46.87, 410.41 -185.17 M156.91 112.55 C249.88 6.5, 340.37 -99.5, 414.74 -184.06 M156.91 112.55 C248.11 7.32, 339.27 -97.79, 414.74 -184.06 M160.58 114.41 C259.48 4.73, 356.44 -107.74, 420.38 -184.45 M160.58 114.41 C215.5 49.64, 271.2 -13.04, 420.38 -184.45 M164.25 116.28 C248.72 19.15, 331.54 -76.77, 425.37 -184.09 M164.25 116.28 C233.94 35.31, 304.71 -45.19, 425.37 -184.09 M168.59 117.4 C241.93 35.89, 310.8 -43.89, 430.35 -183.73 M168.59 117.4 C256.63 15.22, 344.19 -85.7, 430.35 -183.73 M172.26 119.27 C237 43.96, 303.07 -30.11, 435.34 -183.37 M172.26 119.27 C267.11 12.48, 360.15 -95.25, 435.34 -183.37 M176.59 120.38 C281.69 0.14, 386.69 -122.75, 440.98 -183.76 M176.59 120.38 C260.33 24.19, 344.33 -72.19, 440.98 -183.76 M180.27 122.25 C254.52 39.02, 326.87 -43.68, 445.97 -183.4 M180.27 122.25 C235.74 58.3, 290.49 -4.89, 445.97 -183.4 M183.94 124.12 C284.13 8.97, 384.79 -106.21, 451.61 -183.8 M183.94 124.12 C262.29 32.68, 341.12 -58.8, 451.61 -183.8 M188.27 125.24 C256.07 47.67, 324.66 -33.38, 456.6 -183.44 M188.27 125.24 C275.89 27.4, 361.29 -72.11, 456.6 -183.44 M191.95 127.11 C266.92 40.15, 342.68 -48.62, 461.59 -183.08 M191.95 127.11 C287.4 16.01, 383.54 -94.37, 461.59 -183.08 M195.62 128.98 C272.82 39.47, 350.96 -49.9, 466.57 -182.72 M195.62 128.98 C305.18 3.89, 412.48 -120.9, 466.57 -182.72 M199.95 130.09 C302.38 13.69, 403.61 -104.95, 471.56 -182.36 M199.95 130.09 C262.74 55.79, 327.85 -19.17, 471.56 -182.36 M203.63 131.96 C303.97 17.03, 402.87 -99.96, 475.89 -181.24 M203.63 131.96 C268.74 56.81, 334.87 -19.67, 475.89 -181.24 M207.3 133.83 C312.6 10.74, 419.65 -113.33, 480.88 -180.88 M207.3 133.83 C271.19 61.65, 334.87 -12.12, 480.88 -180.88 M211.63 134.95 C301.6 29.81, 393.32 -75.17, 485.87 -180.52 M211.63 134.95 C284.71 52.44, 355.28 -30.55, 485.87 -180.52 M214.65 137.57 C278.29 63.78, 342.43 -10.55, 490.85 -180.16 M214.65 137.57 C292.73 48.72, 370.28 -41.45, 490.85 -180.16 M211.77 146.99 C211.77 146.99, 211.77 146.99, 211.77 146.99 M211.77 146.99 C211.77 146.99, 211.77 146.99, 211.77 146.99 M218.33 139.44 C296.1 51.09, 373.33 -38.76, 495.84 -179.8 M218.33 139.44 C296.91 49.92, 374.98 -38.93, 495.84 -179.8 M217.41 146.59 C217.41 146.59, 217.41 146.59, 217.41 146.59 M217.41 146.59 C217.41 146.59, 217.41 146.59, 217.41 146.59 M222 141.31 C301.11 49.44, 380.23 -41.79, 500.83 -179.44 M222 141.31 C324.61 23.58, 427.5 -95.22, 500.83 -179.44 M222.4 146.95 C222.5 146.77, 222.83 146.54, 223.05 146.2 M222.4 146.95 C222.64 146.75, 222.82 146.54, 223.05 146.2 M225.68 143.18 C300.7 55.86, 375.26 -30.66, 505.16 -178.33 M225.68 143.18 C295.29 63.04, 365.24 -17.87, 505.16 -178.33 M228.04 146.56 C228.23 146.43, 228.46 146.25, 228.7 145.8 M228.04 146.56 C228.24 146.25, 228.49 145.99, 228.7 145.8 M229.35 145.05 C295.72 68.47, 360.96 -6.93, 510.15 -177.97 M229.35 145.05 C306.4 57.78, 380.84 -28.24, 510.15 -177.97 M233.03 146.92 C326.95 40.36, 420.2 -66.75, 514.48 -176.85 M233.03 146.92 C327.46 37.06, 422.36 -72.59, 514.48 -176.85 M238.01 147.28 C307.78 66.74, 379.85 -17.26, 518.81 -175.74 M238.01 147.28 C327.64 43.11, 418.77 -61.47, 518.81 -175.74 M243.66 146.88 C343.78 34.22, 443.46 -79.34, 523.14 -174.62 M243.66 146.88 C338.9 35.68, 434.55 -74.08, 523.14 -174.62 M248.64 147.24 C354.3 27.28, 458.27 -93.89, 527.47 -173.51 M248.64 147.24 C349.85 28.75, 451.96 -88.79, 527.47 -173.51 M254.29 146.85 C346.97 38.09, 440.86 -68.38, 531.8 -172.39 M254.29 146.85 C363.36 22.52, 471.89 -101.78, 531.8 -172.39 M259.27 147.21 C345.08 47.99, 432.41 -51.62, 536.13 -171.28 M259.27 147.21 C342.26 50.92, 427.06 -46.33, 536.13 -171.28 M264.92 146.81 C344.28 53.78, 427.46 -40.28, 540.46 -170.16 M264.92 146.81 C345.23 53.89, 425.42 -38.36, 540.46 -170.16 M269.9 147.17 C370.06 32.03, 469.06 -82.87, 544.79 -169.05 M269.9 147.17 C348.13 56.59, 427.05 -34.32, 544.79 -169.05 M274.89 147.53 C378.04 30.44, 479.8 -86.17, 549.12 -167.93 M274.89 147.53 C374 30.23, 475.75 -85.52, 549.12 -167.93 M280.53 147.14 C359.32 55.95, 439.22 -36.09, 553.46 -166.82 M280.53 147.14 C340.23 75.93, 402.03 5.1, 553.46 -166.82 M285.52 147.5 C374.92 43.74, 464.79 -56.66, 557.79 -165.71 M285.52 147.5 C377.48 39.85, 469.9 -66.69, 557.79 -165.71 M291.16 147.1 C356.08 74.44, 420.99 -1.67, 562.12 -164.59 M291.16 147.1 C365.1 63.34, 438.61 -21.2, 562.12 -164.59 M296.15 147.46 C366.15 69.54, 434.54 -9.33, 566.45 -163.48 M296.15 147.46 C358.01 77.57, 419.26 7.26, 566.45 -163.48 M301.14 147.82 C358.14 81.89, 415.73 14.87, 570.78 -162.36 M301.14 147.82 C393.57 43.02, 484.43 -60.94, 570.78 -162.36 M306.78 147.43 C377.9 63.98, 449.7 -16.31, 575.11 -161.25 M306.78 147.43 C372.25 69.89, 438.15 -7.04, 575.11 -161.25 M311.77 147.79 C368.17 81.82, 423.77 17.7, 579.44 -160.13 M311.77 147.79 C415.17 30.65, 517.78 -87.66, 579.44 -160.13 M317.41 147.4 C421.72 25.12, 527.88 -93.65, 583.77 -159.02 M317.41 147.4 C406.99 44.89, 495.53 -57.14, 583.77 -159.02 M322.4 147.76 C397.83 63.76, 471.7 -21.12, 588.1 -157.9 M322.4 147.76 C407.05 48.66, 492.86 -50.27, 588.1 -157.9 M328.04 147.36 C408.15 53.68, 487.44 -37.2, 592.43 -156.79 M328.04 147.36 C381.25 86.79, 435.48 24.93, 592.43 -156.79 M333.03 147.72 C400.84 69.37, 469.46 -9.63, 596.76 -155.67 M333.03 147.72 C416.85 51.49, 500.34 -45, 596.76 -155.67 M338.02 148.08 C436.66 35.96, 534.64 -76.22, 601.1 -154.56 M338.02 148.08 C413.53 60.1, 489.38 -27.31, 601.1 -154.56 M343.66 147.69 C409.32 70.06, 475.28 -6.96, 604.77 -152.69 M343.66 147.69 C418.3 62.95, 493.06 -22.51, 604.77 -152.69 M348.65 148.05 C402.1 85.32, 455.3 22.71, 609.1 -151.57 M348.65 148.05 C404.29 84.21, 459.87 20.46, 609.1 -151.57 M354.29 147.65 C445.17 41.68, 536.14 -63.31, 613.43 -150.46 M354.29 147.65 C455.62 28.89, 556.57 -87.08, 613.43 -150.46 M359.28 148.01 C445.47 47.1, 533.16 -51.97, 617.76 -149.34 M359.28 148.01 C439.67 54.13, 522.18 -39.94, 617.76 -149.34 M364.26 148.37 C440.17 60.14, 518.87 -28.36, 622.09 -148.23 M364.26 148.37 C455.95 44.69, 547.15 -61.45, 622.09 -148.23 M369.91 147.98 C452.53 53.03, 533.62 -42.28, 626.43 -147.11 M369.91 147.98 C454.24 52.56, 537.64 -43.13, 626.43 -147.11 M374.89 148.34 C433.47 82.93, 491.51 16.76, 630.76 -146 M374.89 148.34 C465.94 44.96, 554.44 -57.01, 630.76 -146 M380.54 147.94 C439.39 81.25, 495.75 15.3, 635.09 -144.88 M380.54 147.94 C449.04 71.12, 517.97 -7.14, 635.09 -144.88 M385.52 148.3 C470.25 54.11, 552.87 -43.09, 639.42 -143.77 M385.52 148.3 C458.12 65.16, 531.82 -19.58, 639.42 -143.77 M391.17 147.91 C481.1 43.35, 572.96 -62.18, 643.75 -142.65 M391.17 147.91 C489.56 36.04, 586.78 -76.32, 643.75 -142.65 M396.15 148.27 C491.09 36.19, 587.37 -75.97, 648.08 -141.54 M396.15 148.27 C484.91 44.99, 574.23 -57.35, 648.08 -141.54 M401.14 148.63 C485.39 51.82, 571.86 -46.94, 652.41 -140.42 M401.14 148.63 C453.46 88.28, 506.98 27.48, 652.41 -140.42 M406.78 148.23 C465.92 77, 526 8.15, 656.74 -139.31 M406.78 148.23 C473.29 72.52, 540.36 -4.62, 656.74 -139.31 M411.77 148.59 C466.74 87.56, 522.26 24.68, 661.07 -138.2 M411.77 148.59 C485.52 65.02, 557.63 -16.67, 661.07 -138.2 M417.41 148.2 C497.18 59.42, 575.01 -32.51, 665.4 -137.08 M417.41 148.2 C467.2 91.06, 516.74 33.86, 665.4 -137.08 M422.4 148.56 C510.14 47.54, 599.23 -54.48, 669.08 -135.21 M422.4 148.56 C484.23 78.46, 546.01 7.1, 669.08 -135.21 M427.39 148.92 C502.08 59.3, 579.98 -27.06, 673.41 -134.1 M427.39 148.92 C499.55 67.14, 570.67 -14.36, 673.41 -134.1 M433.03 148.53 C521.6 48.03, 610.14 -54.51, 677.74 -132.98 M433.03 148.53 C516.73 51.96, 600.18 -45.35, 677.74 -132.98 M438.02 148.89 C509.25 69.61, 578.78 -11.42, 682.07 -131.87 M438.02 148.89 C512.89 62.51, 588.52 -24.3, 682.07 -131.87 M443.66 148.49 C523.61 54.88, 605.5 -39.63, 685.75 -130 M443.66 148.49 C518.32 62.36, 592.96 -23.82, 685.75 -130 M448.65 148.85 C541.24 42.25, 634.1 -67.04, 690.08 -128.88 M448.65 148.85 C544.2 40.92, 637.98 -66.4, 690.08 -128.88 M454.29 148.46 C508.07 85.18, 564.52 21.91, 694.41 -127.77 M454.29 148.46 C522.85 70.38, 591.9 -9.03, 694.41 -127.77 M459.28 148.82 C536.26 59.22, 613.49 -30.91, 698.08 -125.9 M459.28 148.82 C533.61 63.69, 608.53 -23.26, 698.08 -125.9 M464.26 149.18 C535.81 67.23, 606.5 -14.74, 702.41 -124.78 M464.26 149.18 C542.55 59.87, 621.57 -31.03, 702.41 -124.78 M469.91 148.78 C539.42 70.27, 607.99 -11.29, 706.75 -123.67 M469.91 148.78 C521.3 87.89, 572.85 27.32, 706.75 -123.67 M474.9 149.14 C531.52 85.74, 588.49 18.91, 711.08 -122.55 M474.9 149.14 C542.78 72.59, 609.27 -3.18, 711.08 -122.55 M480.54 148.75 C539.67 82.03, 596.38 14.97, 714.75 -120.68 M480.54 148.75 C548.61 71.22, 617.85 -7.71, 714.75 -120.68 M485.53 149.11 C547.64 79.71, 606.95 10.12, 719.08 -119.57 M485.53 149.11 C553.43 71.92, 621.29 -7.51, 719.08 -119.57 M491.17 148.71 C544.85 88.62, 596.38 28.14, 723.41 -118.45 M491.17 148.71 C552.94 78.25, 614.14 8.6, 723.41 -118.45 M496.16 149.07 C586.76 45.23, 675.55 -57.28, 727.09 -116.58 M496.16 149.07 C568.86 66.47, 640.54 -15.79, 727.09 -116.58 M501.8 148.68 C555.79 84.89, 608.41 23.08, 731.42 -115.47 M501.8 148.68 C576.12 60, 652.74 -27.16, 731.42 -115.47 M507.44 148.28 C593.3 46.34, 682.62 -54.86, 735.09 -113.6 M507.44 148.28 C596.88 45.96, 685.65 -57.19, 735.09 -113.6 M513.08 147.89 C594.67 55.24, 675.32 -39.38, 738.77 -111.73 M513.08 147.89 C562.71 89.71, 614 30.19, 738.77 -111.73 M518.07 148.25 C571.55 85.15, 624.18 25.44, 742.44 -109.86 M518.07 148.25 C606.78 47.2, 693.55 -52.25, 742.44 -109.86 M523.71 147.86 C578 82.73, 635.78 18.48, 746.12 -107.99 M523.71 147.86 C600.42 58.87, 677.43 -30.4, 746.12 -107.99 M529.36 147.46 C580.86 85.31, 635.17 23.76, 749.79 -106.12 M529.36 147.46 C586.16 81.14, 642.51 16.83, 749.79 -106.12 M534.34 147.82 C588.42 87.99, 639.92 25.07, 753.47 -104.25 M534.34 147.82 C585.26 89.56, 635.32 29.69, 753.47 -104.25 M539.99 147.43 C612.78 64.39, 683.23 -18.73, 757.14 -102.38 M539.99 147.43 C616.7 60.06, 692.37 -26.33, 757.14 -102.38 M545.63 147.03 C595.84 90.04, 646.91 32.19, 760.82 -100.51 M545.63 147.03 C605.7 76.23, 666.63 5.43, 760.82 -100.51 M550.62 147.39 C626.56 58.49, 703.4 -28.77, 764.49 -98.64 M550.62 147.39 C621.55 68.38, 691.29 -12.24, 764.49 -98.64 M556.26 147 C641.84 49.98, 725.08 -45.13, 768.17 -96.77 M556.26 147 C609.48 88.79, 660.7 29.43, 768.17 -96.77 M561.9 146.6 C644.09 52.04, 728.01 -43.19, 771.84 -94.9 M561.9 146.6 C615.16 86.64, 668.19 24.51, 771.84 -94.9 M567.55 146.21 C627.28 77.78, 686.54 8.77, 774.86 -92.28 M567.55 146.21 C630.67 73.41, 695.8 0.26, 774.86 -92.28 M571.88 147.32 C620.16 93.21, 666.55 37.46, 777.88 -89.66 M571.88 147.32 C629 79.67, 687.19 11.11, 777.88 -89.66 M578.18 146.17 C644.81 70.93, 709.38 -4.92, 780.24 -86.28 M578.18 146.17 C625.78 92.04, 673.68 36.87, 780.24 -86.28 M583.82 145.78 C642.98 77.46, 703.5 7.63, 783.26 -83.65 M583.82 145.78 C661.35 55.39, 738.47 -33.43, 783.26 -83.65 M590.12 144.63 C651.44 78.06, 708.94 7.42, 786.28 -81.03 M590.12 144.63 C633.27 94.38, 676.54 46.17, 786.28 -81.03 M595.76 144.23 C661.51 67.16, 730.25 -10.6, 789.3 -78.4 M595.76 144.23 C638.85 93.68, 681.12 43.92, 789.3 -78.4 M601.41 143.84 C659.25 78.95, 714.92 14.44, 792.32 -75.78 M601.41 143.84 C642.05 95.78, 682.93 49.57, 792.32 -75.78 M607.7 142.69 C668.69 69.35, 730.54 -0.39, 794.68 -72.4 M607.7 142.69 C656.25 84.35, 705.63 27.89, 794.68 -72.4 M613.35 142.3 C675.75 70.63, 738.35 -0.4, 797.7 -69.78 M613.35 142.3 C653.35 96, 693.97 49.96, 797.7 -69.78 M618.99 141.9 C681.18 67.79, 747.39 -4.26, 800.72 -67.15 M618.99 141.9 C669.14 86.28, 717.74 29.64, 800.72 -67.15 M625.29 140.75 C685.99 67.73, 750.28 -6.45, 803.08 -63.77 M625.29 140.75 C659.86 98.3, 696.07 56.61, 803.08 -63.77 M631.59 139.6 C687.98 75.9, 745.11 8.89, 805.44 -60.4 M631.59 139.6 C668.04 97.25, 705.44 53.43, 805.44 -60.4 M637.89 138.45 C678.64 95.64, 718.48 48.17, 807.81 -57.02 M637.89 138.45 C701.11 66.59, 763.3 -4.8, 807.81 -57.02 M644.19 137.3 C693.27 81.72, 739.84 26.09, 810.17 -53.64 M644.19 137.3 C706.61 65.36, 767.01 -5.8, 810.17 -53.64 M650.49 136.15 C705.9 74.87, 757.68 11.85, 812.53 -50.26 M650.49 136.15 C693.04 86.07, 737.08 35.32, 812.53 -50.26 M657.44 134.25 C703.46 79.95, 750.68 28.01, 814.24 -46.12 M657.44 134.25 C690.56 97.55, 723.88 59.91, 814.24 -46.12 M663.74 133.1 C723.45 65.05, 782.47 -4.53, 815.29 -41.24 M663.74 133.1 C711.77 77.25, 761.9 20.54, 815.29 -41.24 M670.04 131.95 C722.09 74.38, 773.49 16.53, 817 -37.1 M670.04 131.95 C713.56 81.98, 758.25 31.3, 817 -37.1 M676.34 130.8 C706.63 95.14, 738.65 57.88, 818.05 -32.21 M676.34 130.8 C716.3 82.8, 756.23 38.09, 818.05 -32.21 M682.64 129.65 C717.33 91.72, 750.65 51.07, 819.75 -28.08 M682.64 129.65 C714.97 94.22, 745.84 57.35, 819.75 -28.08 M688.94 128.5 C717.02 97.64, 742.4 64.5, 821.46 -23.95 M688.94 128.5 C740.22 71.23, 790.2 15.39, 821.46 -23.95 M695.89 126.6 C736.69 81.89, 776.83 34.06, 822.51 -19.06 M695.89 126.6 C727.08 87.3, 759.74 49.66, 822.51 -19.06 M702.85 124.7 C750.16 70.43, 797.62 15.08, 822.91 -13.42 M702.85 124.7 C744.7 76.52, 786.81 25.92, 822.91 -13.42 M709.8 122.79 C746.85 79.89, 783.87 37.4, 823.3 -7.77 M709.8 122.79 C743.47 86.46, 774.92 51.56, 823.3 -7.77 M716.1 121.64 C741.53 93.35, 767.04 65.44, 823.04 -1.37 M716.1 121.64 C744.21 91.91, 770.61 61.6, 823.04 -1.37 M723.06 119.74 C758.32 78.48, 792.02 37.88, 823.43 4.27 M723.06 119.74 C749.83 89.54, 777.98 58.04, 823.43 4.27 M730.01 117.83 C748.05 96.24, 766.89 72.24, 823.17 10.67 M730.01 117.83 C750.29 93.16, 770.75 71.94, 823.17 10.67 M736.31 116.69 C761.91 88.79, 784.47 59.38, 822.91 17.06 M736.31 116.69 C753.95 96.42, 772.6 75.32, 822.91 17.06 M743.27 114.78 C760.4 94.19, 777.66 74.8, 823.31 22.71 M743.27 114.78 C765.93 88.51, 787.62 62.09, 823.31 22.71 M750.22 112.88 C778.08 82.65, 806.42 49.73, 823.04 29.1 M750.22 112.88 C778.35 82.77, 805.01 50, 823.04 29.1 M757.18 110.97 C783.38 81.63, 809.08 53.03, 823.44 34.75 M757.18 110.97 C772.29 95.47, 786.05 78.94, 823.44 34.75 M763.48 109.82 C779.69 92.21, 791.89 75.63, 823.18 41.15 M763.48 109.82 C778.02 91.19, 793.68 73.34, 823.18 41.15 M771.09 107.17 C783.03 93.95, 798.03 76.09, 822.26 48.3 M771.09 107.17 C783.66 93.75, 794.86 79.23, 822.26 48.3 M782.64 99.98 C796 88.21, 808.12 74.09, 822.65 53.94 M782.64 99.98 C793.39 89.05, 804.15 77.62, 822.65 53.94" stroke="#b2f2bb" stroke-width="0.5" fill="none"></path><path fill="#2f9e44" d="M -1.56,0.07 Q -1.56,0.07 -1.81,-5.67 -2.06,-11.42 -2.16,-22.81 -2.26,-34.19 -2.29,-41.03 -2.33,-47.87 -2.30,-57.51 -2.26,-67.14 11.94,-83.88 26.15,-100.63 34.49,-108.80 42.82,-116.96 68.94,-129.73 95.05,-142.50 111.86,-149.61 128.68,-156.72 140.71,-161.47 152.75,-166.22 167.76,-168.84 182.77,-171.47 224.23,-174.88 265.69,-178.28 291.06,-179.73 316.43,-181.17 341.00,-182.94 365.57,-184.70 379.19,-185.45 392.81,-186.20 420.21,-185.37 447.61,-184.54 470.21,-181.88 492.82,-179.22 506.15,-177.52 519.47,-175.82 553.09,-167.60 586.71,-159.39 616.22,-151.59 645.73,-143.79 661.14,-139.61 676.56,-135.44 701.58,-125.59 726.59,-115.74 741.85,-108.09 757.11,-100.44 765.93,-94.87 774.75,-89.29 783.72,-81.71 792.70,-74.12 799.46,-64.77 806.22,-55.42 809.66,-49.72 813.09,-44.02 815.75,-36.03 818.40,-28.03 819.81,-22.63 821.21,-17.24 821.82,-4.77 822.43,7.69 822.11,20.18 821.78,32.66 818.75,43.56 815.71,54.46 813.84,60.22 811.97,65.97 806.20,73.48 800.42,80.99 791.87,87.94 783.31,94.89 777.08,98.99 770.85,103.09 765.56,105.72 760.28,108.35 705.87,119.56 651.46,130.78 532.27,135.54 413.08,140.29 360.74,142.02 308.40,143.75 280.63,141.61 252.85,139.47 232.94,135.38 213.04,131.30 201.71,128.41 190.37,125.53 176.88,120.54 163.39,115.56 153.61,111.14 143.84,106.71 139.13,104.55 134.41,102.38 128.65,99.44 122.88,96.50 117.85,93.81 112.81,91.12 106.08,87.69 99.36,84.25 95.38,82.52 91.40,80.78 86.75,77.99 82.09,75.19 79.58,73.74 77.07,72.29 73.11,69.94 69.16,67.59 65.86,66.35 62.55,65.12 58.38,62.20 54.20,59.27 51.63,57.49 49.06,55.71 45.62,52.91 42.18,50.11 40.44,48.64 38.70,47.16 34.57,44.28 30.43,41.39 27.14,38.37 23.86,35.34 19.54,29.69 15.22,24.03 13.12,21.07 11.01,18.11 9.57,16.31 8.13,14.52 5.76,11.12 3.39,7.72 2.33,5.97 1.28,4.23 0.22,2.88 -0.83,1.53 -0.94,1.30 -1.05,1.07 -1.08,0.82 -1.11,0.57 -1.06,0.32 -1.01,0.08 -0.88,-0.13 -0.76,-0.35 -0.57,-0.52 -0.37,-0.69 -0.14,-0.78 0.08,-0.88 0.34,-0.90 0.59,-0.91 0.83,-0.85 1.08,-0.79 1.29,-0.65 1.50,-0.51 1.66,-0.31 1.81,-0.11 1.90,0.12 1.98,0.36 1.99,0.61 1.99,0.87 1.91,1.11 1.84,1.35 1.69,1.55 1.53,1.76 1.33,1.90 1.12,2.05 0.88,2.12 0.63,2.19 0.38,2.18 0.13,2.17 -0.10,2.08 -0.34,1.99 -0.53,1.83 -0.73,1.66 -0.86,1.45 -0.99,1.23 -1.05,0.99 -1.11,0.74 -1.09,0.49 -1.06,0.24 -0.96,0.01 -0.86,-0.22 -0.68,-0.40 -0.51,-0.59 -0.29,-0.71 -0.07,-0.83 0.17,-0.88 0.42,-0.92 0.67,-0.88 0.92,-0.85 1.15,-0.73 1.37,-0.62 1.55,-0.43 1.73,-0.25 1.73,-0.25 1.73,-0.25 2.69,1.29 3.66,2.84 4.60,4.53 5.54,6.22 7.86,9.54 10.18,12.87 11.67,14.73 13.16,16.59 15.23,19.51 17.31,22.44 21.48,27.93 25.64,33.42 28.79,36.33 31.94,39.24 36.17,42.20 40.40,45.16 42.12,46.62 43.84,48.07 47.20,50.81 50.55,53.55 53.13,55.34 55.71,57.13 59.61,59.90 63.50,62.67 67.00,64.00 70.50,65.33 74.44,67.67 78.38,70.01 80.91,71.48 83.44,72.94 87.95,75.66 92.45,78.38 96.50,80.14 100.55,81.91 107.30,85.36 114.04,88.80 119.06,91.48 124.08,94.16 129.79,97.08 135.51,100.00 140.21,102.16 144.92,104.32 154.61,108.71 164.30,113.10 177.66,118.04 191.03,122.98 202.30,125.85 213.57,128.73 233.31,132.79 253.05,136.85 280.69,138.99 308.32,141.13 360.65,139.40 412.98,137.67 531.96,132.94 650.93,128.21 705.03,117.10 759.13,105.99 764.27,103.44 769.41,100.89 775.53,96.87 781.66,92.85 790.01,86.11 798.35,79.37 803.93,72.24 809.50,65.11 811.34,59.44 813.18,53.76 816.17,43.16 819.16,32.57 819.49,20.20 819.81,7.82 819.24,-4.38 818.67,-16.59 817.29,-21.90 815.91,-27.21 813.37,-34.94 810.83,-42.68 807.46,-48.28 804.09,-53.88 797.54,-63.01 790.99,-72.13 782.16,-79.60 773.34,-87.08 764.64,-92.59 755.93,-98.09 740.78,-105.70 725.63,-113.30 700.75,-123.10 675.87,-132.90 660.46,-137.08 645.06,-141.25 615.57,-149.04 586.09,-156.84 552.61,-165.02 519.14,-173.21 505.82,-174.91 492.51,-176.61 470.02,-179.26 447.53,-181.91 420.24,-182.74 392.95,-183.57 379.35,-182.82 365.76,-182.07 341.17,-180.31 316.59,-178.54 291.24,-177.10 265.90,-175.65 224.56,-172.26 183.22,-168.86 168.47,-166.30 153.71,-163.75 141.71,-159.01 129.71,-154.27 112.97,-147.18 96.23,-140.09 70.45,-127.55 44.68,-115.01 36.45,-106.93 28.22,-98.85 14.27,-82.78 0.33,-66.71 0.40,-57.30 0.48,-47.90 0.55,-41.06 0.62,-34.22 0.77,-22.90 0.91,-11.57 1.23,-5.82 1.56,-0.07 1.54,0.10 1.53,0.29 1.47,0.47 1.41,0.65 1.31,0.81 1.21,0.97 1.08,1.10 0.95,1.23 0.78,1.33 0.62,1.43 0.44,1.48 0.26,1.53 0.07,1.54 -0.11,1.55 -0.29,1.52 -0.48,1.48 -0.65,1.40 -0.82,1.32 -0.96,1.21 -1.11,1.09 -1.23,0.94 -1.34,0.79 -1.42,0.62 -1.49,0.44 -1.52,0.26 -1.56,0.07 -1.56,0.07 L -1.56,0.07 Z"></path></g><g transform="translate(348.3333206176758 227.32514846362074) rotate(0 177.13333129882812 22.5)"><text x="0" y="0" font-family="Virgil, Segoe UI Emoji" font-size="36px" fill="#f08c00" text-anchor="start" style="white-space: pre;" direction="ltr" dominant-baseline="text-before-edge"> </text></g><g transform="translate(1152.333320617676 405.32514846362074) rotate(0 129.28334045410156 22.5)"><text x="0" y="0" font-family="Virgil, Segoe UI Emoji" font-size="36px" fill="#f08c00" text-anchor="start" style="white-space: pre;" direction="ltr" dominant-baseline="text-before-edge"> </text></g><g transform="translate(475.3333206176758 671.3251484636208) rotate(0 192.89999389648438 22.5)"><text x="0" y="0" font-family="Virgil, Segoe UI Emoji" font-size="36px" fill="#2f9e44" text-anchor="start" style="white-space: pre;" direction="ltr" dominant-baseline="text-before-edge"> </text></g><g stroke-linecap="round"><g transform="translate(1271.333320617676 394.32514846362074) rotate(0 -277.6392630186307 -72.13795030906795)"><path d="M1.11 -0.76 C-9.81 -14.29, 26.06 -56.61, -66.7 -80.47 C-159.45 -104.33, -474.22 -133.23, -555.41 -143.94 M0.23 1.45 C-10.19 -11.97, 28.42 -54.65, -64.35 -79.18 C-157.12 -103.71, -474.34 -135.01, -556.39 -145.73" stroke="#1e1e1e" stroke-width="1" fill="none"></path></g><g transform="translate(1271.333320617676 394.32514846362074) rotate(0 -277.6392630186307 -72.13795030906795)"><path d="M-527.2 -152.68 C-534.3 -152.17, -539.68 -150.29, -556.39 -145.73 M-527.2 -152.68 C-538.69 -149.18, -550.16 -146.22, -556.39 -145.73" stroke="#1e1e1e" stroke-width="1" fill="none"></path></g><g transform="translate(1271.333320617676 394.32514846362074) rotate(0 -277.6392630186307 -72.13795030906795)"><path d="M-529.56 -132.29 C-536.31 -135.91, -541.21 -138.13, -556.39 -145.73 M-529.56 -132.29 C-540.33 -136.71, -550.89 -141.67, -556.39 -145.73" stroke="#1e1e1e" stroke-width="1" fill="none"></path></g></g><mask></mask><g transform="translate(759.1955766807819 242.6954722480284) rotate(7.0880370574045495 207.56666564941406 17.5)"><text x="0" y="0" font-family="Virgil, Segoe UI Emoji" font-size="28px" fill="#1e1e1e" text-anchor="start" style="white-space: pre;" direction="ltr" dominant-baseline="text-before-edge">,  </text></g><g transform="translate(107.33332061767578 392.32514846362074) rotate(0 69.79166412353516 52.5)"><text x="0" y="0" font-family="Virgil, Segoe UI Emoji" font-size="28px" fill="#1971c2" text-anchor="start" style="white-space: pre;" direction="ltr" dominant-baseline="text-before-edge"></text><text x="0" y="35" font-family="Virgil, Segoe UI Emoji" font-size="28px" fill="#1971c2" text-anchor="start" style="white-space: pre;" direction="ltr" dominant-baseline="text-before-edge"> </text><text x="0" y="70" font-family="Virgil, Segoe UI Emoji" font-size="28px" fill="#1971c2" text-anchor="start" style="white-space: pre;" direction="ltr" dominant-baseline="text-before-edge"> </text></g><g stroke-linecap="round"><g transform="translate(711.9408403113462 662.3251484636207) rotate(0 9.65442949647695 -189.95806228790434)"><path d="M-0.85 0.76 C1.22 -12.79, 4.58 -37.58, 13.01 -80.99 C21.44 -124.4, 57.13 -210.12, 49.73 -259.69 C42.32 -309.26, -17.91 -358.51, -31.42 -378.43 M0.9 0.12 C2.78 -13.79, 4.06 -39.53, 12.15 -82.59 C20.24 -125.64, 56.64 -208.53, 49.46 -258.21 C42.28 -307.9, -17.27 -360.57, -30.93 -380.68" stroke="#1971c2" stroke-width="1" fill="none"></path></g><g transform="translate(711.9408403113462 662.3251484636207) rotate(0 9.65442949647695 -189.95806228790434)"><path d="M-4.86 -365.84 C-12.73 -370.92, -21.43 -374.81, -30.93 -380.68 M-4.86 -365.84 C-12.94 -370.68, -21 -376.32, -30.93 -380.68" stroke="#1971c2" stroke-width="1" fill="none"></path></g><g transform="translate(711.9408403113462 662.3251484636207) rotate(0 9.65442949647695 -189.95806228790434)"><path d="M-20.5 -352.55 C-22.95 -362.16, -26.19 -370.68, -30.93 -380.68 M-20.5 -352.55 C-23.54 -361.8, -26.5 -371.76, -30.93 -380.68" stroke="#1971c2" stroke-width="1" fill="none"></path></g></g><mask></mask><g transform="translate(534.3333206176758 542.3251484636208) rotate(0 69.79166412353516 52.5)"><text x="0" y="0" font-family="Virgil, Segoe UI Emoji" font-size="28px" fill="#1971c2" text-anchor="start" style="white-space: pre;" direction="ltr" dominant-baseline="text-before-edge"></text><text x="0" y="35" font-family="Virgil, Segoe UI Emoji" font-size="28px" fill="#1971c2" text-anchor="start" style="white-space: pre;" direction="ltr" dominant-baseline="text-before-edge"> </text><text x="0" y="70" font-family="Virgil, Segoe UI Emoji" font-size="28px" fill="#1971c2" text-anchor="start" style="white-space: pre;" direction="ltr" dominant-baseline="text-before-edge"> </text></g><g transform="translate(1040.333320617676 109.32514846362074) rotate(0 174.64999389648438 22.5)"><text x="0" y="0" font-family="Virgil, Segoe UI Emoji" font-size="36px" fill="#f08c00" text-anchor="start" style="white-space: pre;" direction="ltr" dominant-baseline="text-before-edge"> </text></g><g transform="translate(1401.333320617676 267.32514846362074) rotate(0 67.95833587646484 35)"><text x="0" y="0" font-family="Virgil, Segoe UI Emoji" font-size="28px" fill="#1e1e1e" text-anchor="start" style="white-space: pre;" direction="ltr" dominant-baseline="text-before-edge"></text><text x="0" y="35" font-family="Virgil, Segoe UI Emoji" font-size="28px" fill="#1e1e1e" text-anchor="start" style="white-space: pre;" direction="ltr" dominant-baseline="text-before-edge"></text></g><g stroke-linecap="round"><g transform="translate(1391.333320617676 392.32514846362074) rotate(0 -0.8578242768717246 -114.4986395659406)"><path d="M-0.18 0.07 C1.85 -29.24, 14.23 -137.68, 11.95 -175.87 C9.67 -214.06, -9.58 -220.22, -13.86 -229.07 M0.16 -0.1 C2.17 -29.48, 14.09 -138.09, 11.74 -176.21 C9.39 -214.34, -9.6 -220.09, -13.94 -228.84" stroke="#1e1e1e" stroke-width="1" fill="none"></path></g><g transform="translate(1391.333320617676 392.32514846362074) rotate(0 -0.8578242768717246 -114.4986395659406)"><path d="M11.92 -214.62 C6.82 -217.64, 1.7 -220.16, -13.94 -228.84 M11.92 -214.62 C4.73 -218.68, -2.17 -222.36, -13.94 -228.84" stroke="#1e1e1e" stroke-width="1" fill="none"></path></g><g transform="translate(1391.333320617676 392.32514846362074) rotate(0 -0.8578242768717246 -114.4986395659406)"><path d="M-3.28 -201.32 C-5.3 -207.01, -7.34 -212.22, -13.94 -228.84 M-3.28 -201.32 C-6.36 -209, -9.14 -216.3, -13.94 -228.84" stroke="#1e1e1e" stroke-width="1" fill="none"></path></g></g><mask></mask><g transform="translate(353.3333206176758 105.32514846362074) rotate(0 107.33333587646484 62.5)"><text x="0" y="0" font-family="Virgil, Segoe UI Emoji" font-size="20px" fill="#1e1e1e" text-anchor="start" style="white-space: pre;" direction="ltr" dominant-baseline="text-before-edge">:</text><text x="0" y="25" font-family="Virgil, Segoe UI Emoji" font-size="20px" fill="#1e1e1e" text-anchor="start" style="white-space: pre;" direction="ltr" dominant-baseline="text-before-edge">  </text><text x="0" y="50" font-family="Virgil, Segoe UI Emoji" font-size="20px" fill="#1e1e1e" text-anchor="start" style="white-space: pre;" direction="ltr" dominant-baseline="text-before-edge">  </text><text x="0" y="75" font-family="Virgil, Segoe UI Emoji" font-size="20px" fill="#1e1e1e" text-anchor="start" style="white-space: pre;" direction="ltr" dominant-baseline="text-before-edge">  </text><text x="0" y="100" font-family="Virgil, Segoe UI Emoji" font-size="20px" fill="#1e1e1e" text-anchor="start" style="white-space: pre;" direction="ltr" dominant-baseline="text-before-edge">  </text></g><g transform="translate(350.3333206176758 272.32514846362074) rotate(0 140.0500030517578 25)"><text x="0" y="0" font-family="Virgil, Segoe UI Emoji" font-size="20px" fill="#1e1e1e" text-anchor="start" style="white-space: pre;" direction="ltr" dominant-baseline="text-before-edge">  </text><text x="0" y="25" font-family="Virgil, Segoe UI Emoji" font-size="20px" fill="#1e1e1e" text-anchor="start" style="white-space: pre;" direction="ltr" dominant-baseline="text-before-edge">  </text></g><g stroke-linecap="round"><g transform="translate(712.3333206176758 283.32514846362074) rotate(0 214.2910242585558 82.78493812891651)"><path d="M0.34 -0.7 C21.25 23.69, 55.03 118.69, 126.56 146.35 C198.09 174.02, 378.9 162.07, 429.52 165.31 M-0.94 1.55 C19.77 25.57, 54.33 116.97, 125.9 144.42 C197.48 171.87, 377.71 162.53, 428.51 166.27" stroke="#1e1e1e" stroke-width="1" fill="none"></path></g><g transform="translate(712.3333206176758 283.32514846362074) rotate(0 214.2910242585558 82.78493812891651)"><path d="M400.16 176.08 C410.04 173.1, 422.82 167.56, 428.51 166.27 M400.16 176.08 C406.76 174.55, 413.89 172.12, 428.51 166.27" stroke="#1e1e1e" stroke-width="1" fill="none"></path></g><g transform="translate(712.3333206176758 283.32514846362074) rotate(0 214.2910242585558 82.78493812891651)"><path d="M400.48 155.56 C410.24 160.58, 422.9 163.02, 428.51 166.27 M400.48 155.56 C407.05 159.01, 414.1 161.55, 428.51 166.27" stroke="#1e1e1e" stroke-width="1" fill="none"></path></g></g><mask></mask><g transform="translate(808.3333206176758 454.32514846362085) rotate(0 118.71666717529297 17.5)"><text x="0" y="0" font-family="Virgil, Segoe UI Emoji" font-size="28px" fill="#1e1e1e" text-anchor="start" style="white-space: pre;" direction="ltr" dominant-baseline="text-before-edge">  </text></g><g stroke-linecap="round"><g transform="translate(338.6607522972963 246.71769978682232) rotate(0 30.94373026395374 207.8001322038341)"><path d="M0.73 0.13 C-12.04 5.2, -66.1 -6.4, -77.28 30.47 C-88.45 67.34, -104.64 157.2, -66.33 221.36 C-28.01 285.52, 116.27 382.95, 152.6 415.44 M-0.35 -0.85 C-13.22 4.32, -67.08 -5.3, -78.2 31.41 C-89.32 68.12, -105.66 155.24, -67.09 219.41 C-28.52 283.59, 116.43 383.52, 153.22 416.45" stroke="#1971c2" stroke-width="1" fill="none"></path></g><g transform="translate(338.6607522972963 246.71769978682232) rotate(0 30.94373026395374 207.8001322038341)"><path d="M124.77 406.94 C132.01 409.2, 136.93 411.47, 153.22 416.45 M124.77 406.94 C134.92 411, 145.78 413.79, 153.22 416.45" stroke="#1971c2" stroke-width="1" fill="none"></path></g><g transform="translate(338.6607522972963 246.71769978682232) rotate(0 30.94373026395374 207.8001322038341)"><path d="M137.54 390.88 C141.63 397.18, 143.4 403.42, 153.22 416.45 M137.54 390.88 C143.16 400.75, 149.38 409.37, 153.22 416.45" stroke="#1971c2" stroke-width="1" fill="none"></path></g></g><mask></mask><g transform="translate(1153.333320617676 449.32514846362074) rotate(0 172.1750030517578 62.5)"><text x="0" y="0" font-family="Virgil, Segoe UI Emoji" font-size="20px" fill="#1e1e1e" text-anchor="start" style="white-space: pre;" direction="ltr" dominant-baseline="text-before-edge">   </text><text x="0" y="25" font-family="Virgil, Segoe UI Emoji" font-size="20px" fill="#1e1e1e" text-anchor="start" style="white-space: pre;" direction="ltr" dominant-baseline="text-before-edge">   </text><text x="0" y="50" font-family="Virgil, Segoe UI Emoji" font-size="20px" fill="#1e1e1e" text-anchor="start" style="white-space: pre;" direction="ltr" dominant-baseline="text-before-edge">  </text><text x="0" y="75" font-family="Virgil, Segoe UI Emoji" font-size="20px" fill="#1e1e1e" text-anchor="start" style="white-space: pre;" direction="ltr" dominant-baseline="text-before-edge">  </text><text x="0" y="100" font-family="Virgil, Segoe UI Emoji" font-size="20px" fill="#1e1e1e" text-anchor="start" style="white-space: pre;" direction="ltr" dominant-baseline="text-before-edge">   </text></g><g transform="translate(1041.333320617676 150.32514846362074) rotate(0 140.74166870117188 25)"><text x="0" y="0" font-family="Virgil, Segoe UI Emoji" font-size="20px" fill="#1e1e1e" text-anchor="start" style="white-space: pre;" direction="ltr" dominant-baseline="text-before-edge"> </text><text x="0" y="25" font-family="Virgil, Segoe UI Emoji" font-size="20px" fill="#1e1e1e" text-anchor="start" style="white-space: pre;" direction="ltr" dominant-baseline="text-before-edge">    </text></g><g transform="translate(1045.333320617676 200.32514846362074) rotate(0 142.25833129882812 12.5)"><text x="0" y="0" font-family="Virgil, Segoe UI Emoji" font-size="20px" fill="#1e1e1e" text-anchor="start" style="white-space: pre;" direction="ltr" dominant-baseline="text-before-edge">    </text></g><g transform="translate(720.3333206176758 802.3251484636208) rotate(0 121.10832977294922 22.5)"><text x="0" y="0" font-family="Virgil, Segoe UI Emoji" font-size="36px" fill="#2f9e44" text-anchor="start" style="white-space: pre;" direction="ltr" dominant-baseline="text-before-edge"></text></g><g transform="translate(353.3333206176758 793.3251484636208) rotate(0 142.8333282470703 22.5)"><text x="0" y="0" font-family="Virgil, Segoe UI Emoji" font-size="36px" fill="#2f9e44" text-anchor="start" style="white-space: pre;" direction="ltr" dominant-baseline="text-before-edge"></text></g><g transform="translate(211.33332061767578 21.325148463620735) rotate(0 84.625 45)"><text x="0" y="0" font-family="Virgil, Segoe UI Emoji" font-size="36px" fill="#f08c00" text-anchor="start" style="white-space: pre;" direction="ltr" dominant-baseline="text-before-edge"></text><text x="0" y="45" font-family="Virgil, Segoe UI Emoji" font-size="36px" fill="#f08c00" text-anchor="start" style="white-space: pre;" direction="ltr" dominant-baseline="text-before-edge"></text></g><g transform="translate(1069.333320617676 832.3251484636208) rotate(0 96.07499694824219 22.5)"><text x="0" y="0" font-family="Virgil, Segoe UI Emoji" font-size="36px" fill="#2f9e44" text-anchor="start" style="white-space: pre;" direction="ltr" dominant-baseline="text-before-edge"></text></g><g stroke-linecap="round"><g transform="translate(787.3333206176758 724.3251484636208) rotate(0 17.849859461430015 34.9962517191305)"><path d="M0.04 -0.01 C6.05 11.63, 29.99 58.26, 36.01 69.92 M-0.31 -0.29 C5.66 11.4, 29.72 58.52, 35.78 70.28" stroke="#1e1e1e" stroke-width="1" fill="none"></path></g><g transform="translate(787.3333206176758 724.3251484636208) rotate(0 17.849859461430015 34.9962517191305)"><path d="M13.79 49.87 C20.18 55.84, 26.46 62.05, 35.78 70.28 M13.79 49.87 C20.39 55.52, 26.38 61.42, 35.78 70.28" stroke="#1e1e1e" stroke-width="1" fill="none"></path></g><g transform="translate(787.3333206176758 724.3251484636208) rotate(0 17.849859461430015 34.9962517191305)"><path d="M32.05 40.51 C33.13 49.21, 34.09 58.15, 35.78 70.28 M32.05 40.51 C33.45 48.79, 34.22 57.38, 35.78 70.28" stroke="#1e1e1e" stroke-width="1" fill="none"></path></g></g><mask></mask><g stroke-linecap="round"><g transform="translate(557.3333206176758 725.3251484636208) rotate(0 -19.84249095145492 30.03261564445478)"><path d="M0.33 -0.16 C-6.32 9.77, -33.11 49.85, -39.83 59.85 M0.07 0.52 C-6.62 10.65, -33.3 50.29, -40.01 60.23" stroke="#1e1e1e" stroke-width="1" fill="none"></path></g><g transform="translate(557.3333206176758 725.3251484636208) rotate(0 -19.84249095145492 30.03261564445478)"><path d="M-32.77 31.11 C-35.33 40.88, -37.65 49.98, -40.01 60.23 M-32.77 31.11 C-34.65 38.04, -36.48 45.83, -40.01 60.23" stroke="#1e1e1e" stroke-width="1" fill="none"></path></g><g transform="translate(557.3333206176758 725.3251484636208) rotate(0 -19.84249095145492 30.03261564445478)"><path d="M-15.75 42.58 C-23.85 48.69, -31.68 54.09, -40.01 60.23 M-15.75 42.58 C-21.83 46.6, -27.89 51.54, -40.01 60.23" stroke="#1e1e1e" stroke-width="1" fill="none"></path></g></g><mask></mask><g stroke-linecap="round"><g transform="translate(642.3333206176758 215.32514846362074) rotate(0 193.7853290233761 -42.78271261192856)"><path d="M2.77 2.49 C12.59 -8.8, -5.28 -55.4, 58.39 -70.49 C122.06 -85.58, 330.81 -84.85, 384.8 -88.05" stroke="#1e1e1e" stroke-width="1.5" fill="none" stroke-dasharray="8 9"></path></g><g transform="translate(642.3333206176758 215.32514846362074) rotate(0 193.7853290233761 -42.78271261192856)"><path d="M360.47 -77.86 C368.53 -80.93, 374.12 -87.51, 383.81 -87.14" stroke="#1e1e1e" stroke-width="1.5" fill="none"></path></g><g transform="translate(642.3333206176758 215.32514846362074) rotate(0 193.7853290233761 -42.78271261192856)"><path d="M359.88 -98.37 C367.7 -95.7, 373.46 -96.53, 383.81 -87.14" stroke="#1e1e1e" stroke-width="1.5" fill="none"></path></g></g><mask></mask><g stroke-linecap="round"><g transform="translate(1504.333320617676 431.32514846362074) rotate(0 -6.058829055851334 -151.14009456410577)"><path d="M1.46 -1.71 C17.13 -27.32, 85.09 -104.25, 92.2 -151.76 C99.3 -199.28, 77.07 -262.53, 44.1 -286.79 C11.12 -311.05, -81.28 -295.52, -105.64 -297.31" stroke="#1e1e1e" stroke-width="1.5" fill="none" stroke-dasharray="8 9"></path></g><g transform="translate(1504.333320617676 431.32514846362074) rotate(0 -6.058829055851334 -151.14009456410577)"><path d="M-80.34 -307.02 C-86.79 -302.76, -94.78 -306.84, -106.08 -295.94" stroke="#1e1e1e" stroke-width="1.5" fill="none"></path></g><g transform="translate(1504.333320617676 431.32514846362074) rotate(0 -6.058829055851334 -151.14009456410577)"><path d="M-79.49 -286.51 C-86.42 -287.07, -94.61 -295.97, -106.08 -295.94" stroke="#1e1e1e" stroke-width="1.5" fill="none"></path></g></g><mask></mask><g stroke-linecap="round"><g transform="translate(873.3333206176758 696.3251484636208) rotate(0 403.2072243101363 -337.27134737196775)"><path d="M1.37 -2.72 C95.8 -6.63, 436.45 42.7, 569.05 -21.21 C701.65 -85.13, 771.72 -282.03, 796.97 -386.23 C822.22 -490.43, 785.97 -597.32, 720.55 -646.4 C655.13 -695.47, 465.33 -688.74, 404.45 -680.68 C343.57 -672.63, 363.47 -611.68, 355.26 -598.07" stroke="#1e1e1e" stroke-width="1.5" fill="none" stroke-dasharray="8 9"></path></g><g transform="translate(873.3333206176758 696.3251484636208) rotate(0 403.2072243101363 -337.27134737196775)"><path d="M344.62 -627.23 C354.15 -614.65, 356.74 -605.35, 351.84 -594.58" stroke="#1e1e1e" stroke-width="1.5" fill="none"></path></g><g transform="translate(873.3333206176758 696.3251484636208) rotate(0 403.2072243101363 -337.27134737196775)"><path d="M364.99 -624.74 C366.58 -612.92, 361.28 -604.59, 351.84 -594.58" stroke="#1e1e1e" stroke-width="1.5" fill="none"></path></g></g><mask></mask><g stroke-linecap="round"><g transform="translate(1330.333320617676 802.3251484636208) rotate(0 68.00495229131423 -1.5483951372451088)"><path d="M0.04 0.05 C22.66 -0.47, 113.18 -2.67, 135.86 -3.15 M-0.13 -0.05 C22.53 -0.57, 113.44 -2.53, 136.14 -3.03" stroke="#1e1e1e" stroke-width="1" fill="none"></path></g><g transform="translate(1330.333320617676 802.3251484636208) rotate(0 68.00495229131423 -1.5483951372451088)"><path d="M108.18 7.84 C118.92 3.43, 129.15 -0.22, 136.14 -3.03 M108.18 7.84 C119.13 3.52, 130.21 -0.61, 136.14 -3.03" stroke="#1e1e1e" stroke-width="1" fill="none"></path></g><g transform="translate(1330.333320617676 802.3251484636208) rotate(0 68.00495229131423 -1.5483951372451088)"><path d="M107.73 -12.68 C118.64 -9.28, 129.05 -5.13, 136.14 -3.03 M107.73 -12.68 C118.87 -8.92, 130.13 -4.96, 136.14 -3.03" stroke="#1e1e1e" stroke-width="1" fill="none"></path></g></g><mask></mask><g transform="translate(1473.333320617676 785.3251484636208) rotate(0 122.08333587646484 12.5)"><text x="0" y="0" font-family="Virgil, Segoe UI Emoji" font-size="20px" fill="#1e1e1e" text-anchor="start" style="white-space: pre;" direction="ltr" dominant-baseline="text-before-edge">   </text></g><g stroke-linecap="round"><g transform="translate(1332.333320617676 836.3251484636208) rotate(0 64.49199347370586 -0.1737924859619966)"><path d="M0.16 -0.11 C21.63 -0.17, 107.37 -0.25, 128.82 -0.23" stroke="#1e1e1e" stroke-width="1.5" fill="none" stroke-dasharray="8 9"></path></g><g transform="translate(1332.333320617676 836.3251484636208) rotate(0 64.49199347370586 -0.1737924859619966)"><path d="M100.42 9.7 C108.68 6.67, 117.57 3.99, 128.99 0.04" stroke="#1e1e1e" stroke-width="1.5" fill="none"></path></g><g transform="translate(1332.333320617676 836.3251484636208) rotate(0 64.49199347370586 -0.1737924859619966)"><path d="M100.42 -10.83 C108.7 -7.66, 117.6 -4.16, 128.99 0.04" stroke="#1e1e1e" stroke-width="1.5" fill="none"></path></g></g><mask></mask><g transform="translate(1471.333320617676 820.3251484636208) rotate(0 108.40833282470703 12.5)"><text x="0" y="0" font-family="Virgil, Segoe UI Emoji" font-size="20px" fill="#1e1e1e" text-anchor="start" style="white-space: pre;" direction="ltr" dominant-baseline="text-before-edge">   </text></g><g stroke-linecap="round"><g transform="translate(1332.333320617676 871.3251484636208) rotate(0 63.48220457749005 -0.9996310326677076)"><path d="M-0.07 0.08 C21.09 -0.24, 105.85 -1.51, 127.04 -1.88 M0.16 -0.01 C21.31 -0.37, 105.8 -1.74, 126.94 -2.08" stroke="#1971c2" stroke-width="1" fill="none"></path></g><g transform="translate(1332.333320617676 871.3251484636208) rotate(0 63.48220457749005 -0.9996310326677076)"><path d="M98.92 8.63 C107.95 5.34, 116.9 2.01, 126.94 -2.08 M98.92 8.63 C104.66 6.61, 110.17 4.21, 126.94 -2.08" stroke="#1971c2" stroke-width="1" fill="none"></path></g><g transform="translate(1332.333320617676 871.3251484636208) rotate(0 63.48220457749005 -0.9996310326677076)"><path d="M98.59 -11.88 C107.73 -8.68, 116.79 -5.51, 126.94 -2.08 M98.59 -11.88 C104.37 -9.75, 109.95 -8, 126.94 -2.08" stroke="#1971c2" stroke-width="1" fill="none"></path></g></g><mask></mask><g transform="translate(1469.333320617676 859.3251484636208) rotate(0 92.48332977294922 12.5)"><text x="0" y="0" font-family="Virgil, Segoe UI Emoji" font-size="20px" fill="#1971c2" text-anchor="start" style="white-space: pre;" direction="ltr" dominant-baseline="text-before-edge">  </text></g><g transform="translate(1332.333320617676 745.3251484636208) rotate(0 139.50833129882812 17.5)"><text x="0" y="0" font-family="Virgil, Segoe UI Emoji" font-size="28px" fill="#e03131" text-anchor="start" style="white-space: pre;" direction="ltr" dominant-baseline="text-before-edge">LEGEND OF ZELDA</text></g><g transform="translate(-394.5833435058594 419.16257423181037) rotate(270 427.0833435058594 22.5)"><text x="0" y="0" font-family="Virgil, Segoe UI Emoji" font-size="36px" fill="#1e1e1e" text-anchor="start" style="white-space: pre;" direction="ltr" dominant-baseline="text-before-edge">    </text></g></svg>